<svg width="988" height="474" viewBox="0 0 988 474" fill="none" xmlns="http://www.w3.org/2000/svg">

<path d="M715.755 390.747C702.617 390.747 691.966 380.097 691.966 366.959C691.966 353.821 702.617 343.171 715.755 343.171C728.893 343.171 739.543 353.821 739.543 366.959C739.543 380.097 728.893 390.747 715.755 390.747Z" fill="#EBEBEB"/>
<path d="M707.096 352.846C707.04 353.989 707.349 355.12 707.979 356.075C708.619 357.057 709.514 357.847 710.567 358.36C711.65 358.907 712.903 359.011 714.062 358.651C715.164 358.309 716.108 357.584 716.723 356.607C715.873 357.217 714.898 357.63 713.869 357.816C713.385 357.907 712.889 357.907 712.405 357.816C711.924 357.746 711.457 357.595 711.027 357.369C710.797 357.26 710.579 357.139 710.361 357.018C710.144 356.897 709.926 356.74 709.733 356.583C709.331 356.274 708.962 355.926 708.632 355.543C707.954 354.749 707.433 353.834 707.096 352.846Z" fill="#C7C7C7"/>
<path d="M715.657 354.213C715.759 353.421 715.584 352.618 715.161 351.94C714.73 351.238 714.109 350.673 713.371 350.307C712.597 349.923 711.702 349.857 710.88 350.126C710.115 350.389 709.48 350.934 709.102 351.649C709.705 351.277 710.375 351.026 711.074 350.912C711.705 350.842 712.343 350.955 712.912 351.238C714.161 351.859 715.138 352.918 715.657 354.213Z" fill="#C7C7C7"/>
<path d="M715.754 378.134C715.462 378.86 715.441 379.667 715.694 380.407C715.952 381.171 716.432 381.84 717.072 382.33C717.401 382.587 717.778 382.775 718.182 382.883C718.585 382.991 719.005 383.017 719.419 382.959C720.196 382.857 720.907 382.469 721.414 381.871C720.76 382.088 720.071 382.182 719.382 382.149C718.771 382.106 718.186 381.883 717.701 381.508C717.208 381.117 716.797 380.632 716.492 380.081C716.132 379.481 715.883 378.821 715.754 378.134Z" fill="#C7C7C7"/>
<path d="M720.689 380.843C720.819 380.601 720.9 380.335 720.927 380.061C720.954 379.787 720.927 379.51 720.846 379.247C720.687 378.692 720.352 378.204 719.891 377.856C719.652 377.669 719.378 377.533 719.084 377.458C718.79 377.383 718.484 377.37 718.185 377.421C717.914 377.47 717.655 377.574 717.424 377.725C717.194 377.877 716.996 378.074 716.843 378.303C717.301 378.213 717.77 378.193 718.234 378.243C718.61 378.291 718.965 378.442 719.262 378.678C719.959 379.227 720.46 379.986 720.689 380.843Z" fill="#C7C7C7"/>
<path d="M724.329 356.74C724.12 356.936 723.952 357.171 723.835 357.433C723.719 357.695 723.656 357.978 723.652 358.264C723.648 358.575 723.705 358.884 723.822 359.173C723.938 359.461 724.111 359.724 724.329 359.945C724.553 360.173 724.827 360.345 725.13 360.448C725.432 360.551 725.754 360.582 726.071 360.538C726.639 360.484 727.17 360.232 727.57 359.824C727.073 359.838 726.575 359.806 726.083 359.727C725.7 359.666 725.345 359.489 725.067 359.219C724.781 358.929 724.573 358.571 724.462 358.179C724.34 357.71 724.295 357.224 724.329 356.74Z" fill="#C7C7C7"/>
<path d="M727.279 359.05C727.452 358.932 727.595 358.776 727.698 358.593C727.801 358.411 727.86 358.207 727.872 357.998C727.881 357.775 727.843 357.552 727.762 357.344C727.681 357.136 727.558 356.947 727.4 356.789C727.234 356.62 727.03 356.494 726.804 356.423C726.579 356.351 726.339 356.336 726.106 356.378C725.902 356.406 725.706 356.475 725.529 356.581C725.352 356.687 725.199 356.828 725.078 356.994C725.417 357.035 725.752 357.099 726.082 357.188C726.304 357.244 726.505 357.361 726.662 357.527C726.837 357.697 726.973 357.903 727.061 358.131C727.175 358.426 727.249 358.736 727.279 359.05Z" fill="#C7C7C7"/>
<path d="M707.797 381.81C707.935 382.062 708.123 382.284 708.35 382.461C708.577 382.637 708.837 382.766 709.115 382.838C709.414 382.929 709.728 382.957 710.038 382.922C710.348 382.886 710.647 382.788 710.917 382.632C711.193 382.472 711.428 382.249 711.604 381.983C711.781 381.717 711.893 381.413 711.933 381.097C712.008 380.53 711.889 379.954 711.595 379.464C711.494 379.951 711.34 380.426 711.135 380.879C710.992 381.239 710.732 381.541 710.397 381.737C710.051 381.949 709.654 382.066 709.248 382.076C708.753 382.071 708.262 381.981 707.797 381.81Z" fill="#C7C7C7"/>
<path d="M710.76 379.525C710.689 379.328 710.573 379.15 710.422 379.005C710.271 378.86 710.089 378.752 709.889 378.69C709.67 378.618 709.438 378.594 709.208 378.619C708.979 378.644 708.757 378.718 708.559 378.835C708.347 378.961 708.17 379.137 708.043 379.348C707.917 379.56 707.845 379.799 707.833 380.045C707.812 380.25 707.832 380.457 707.892 380.654C707.953 380.852 708.052 381.035 708.184 381.193C708.313 380.876 708.458 380.565 708.619 380.262C708.731 380.062 708.894 379.895 709.091 379.779C709.301 379.66 709.53 379.578 709.768 379.537C710.096 379.486 710.43 379.482 710.76 379.525Z" fill="#C7C7C7"/>
<path d="M699.646 365.073C699.599 365.652 699.781 366.225 700.154 366.67C700.569 367.139 701.15 367.43 701.775 367.48C702.095 367.498 702.414 367.443 702.71 367.319C703.005 367.196 703.268 367.007 703.48 366.766C703.862 366.342 704.088 365.8 704.121 365.23C703.75 365.574 703.345 365.878 702.912 366.137C702.586 366.351 702.201 366.457 701.811 366.44C701.407 366.412 701.016 366.283 700.674 366.065C700.281 365.792 699.934 365.457 699.646 365.073Z" fill="#C7C7C7"/>
<path d="M703.383 364.843C703.442 364.636 703.449 364.418 703.405 364.207C703.361 363.996 703.266 363.8 703.129 363.634C702.985 363.448 702.802 363.297 702.593 363.19C702.384 363.084 702.154 363.024 701.92 363.017C701.689 363.007 701.459 363.053 701.248 363.15C701.038 363.246 700.854 363.391 700.711 363.573C700.578 363.729 700.479 363.91 700.419 364.106C700.358 364.301 700.338 364.507 700.36 364.71C700.639 364.512 700.934 364.338 701.243 364.19C701.444 364.085 701.67 364.039 701.896 364.057C702.14 364.069 702.378 364.13 702.597 364.238C702.884 364.406 703.148 364.609 703.383 364.843Z" fill="#C7C7C7"/>
<path d="M731.162 370.467C731.136 370.751 731.168 371.038 731.255 371.311C731.342 371.583 731.483 371.835 731.67 372.051C731.872 372.288 732.119 372.482 732.398 372.622C732.676 372.761 732.98 372.842 733.291 372.861C733.611 372.882 733.931 372.828 734.227 372.704C734.523 372.581 734.786 372.39 734.996 372.148C735.374 371.726 735.6 371.189 735.637 370.624C735.263 370.964 734.859 371.268 734.427 371.531C734.1 371.742 733.715 371.843 733.327 371.821C732.924 371.797 732.533 371.672 732.19 371.458C731.796 371.185 731.449 370.85 731.162 370.467Z" fill="#C7C7C7"/>
<path d="M734.899 370.225C734.956 370.018 734.963 369.8 734.918 369.59C734.874 369.379 734.781 369.183 734.645 369.016C734.499 368.833 734.316 368.683 734.107 368.577C733.899 368.47 733.67 368.41 733.436 368.399C733.206 368.389 732.977 368.433 732.767 368.527C732.557 368.622 732.372 368.764 732.227 368.943C732.096 369.1 731.997 369.281 731.937 369.476C731.877 369.671 731.856 369.877 731.876 370.08C732.158 369.89 732.453 369.72 732.759 369.572C732.959 369.463 733.185 369.413 733.412 369.427C733.651 369.443 733.885 369.504 734.101 369.608C734.395 369.776 734.663 369.983 734.899 370.225Z" fill="#C7C7C7"/>
<g opacity="0.4">
<path opacity="0.4" d="M981.307 278.531C981.346 287.711 979.592 296.81 976.143 305.318C972.648 313.699 967.122 321.125 959.962 325.793C958.216 326.95 956.371 327.95 954.447 328.78C952.557 329.561 950.597 330.16 948.594 330.57C944.69 331.375 940.668 331.432 936.742 330.739C928.954 329.397 921.77 325.539 915.409 320.459C915.022 320.133 914.587 319.806 914.2 319.504L913.305 318.645C912.724 318.041 912.095 317.436 911.587 316.795C910.427 315.473 909.371 314.062 908.431 312.574C906.373 309.359 904.613 305.962 903.17 302.428C900.032 294.628 897.458 286.614 895.467 278.446C891.149 261.515 887.715 243.58 883.627 225.367C882.611 220.803 881.527 216.224 880.374 211.628C879.261 207.021 878.027 202.401 876.746 197.745C874.139 188.061 870.791 178.592 866.732 169.421C865.619 167.003 864.398 164.584 862.947 162.081C862.233 160.871 861.423 159.577 860.528 158.344C859.633 157.11 858.762 155.925 857.807 154.849C854.149 150.593 849.911 146.872 845.217 143.795C836.341 137.833 827.222 134.12 818.466 130.347C809.71 126.574 801.075 123.091 792.912 118.918C784.831 114.864 777.232 109.91 770.261 104.152C763.516 98.5002 757.765 91.7596 753.245 84.2095C748.795 76.7235 745.553 68.5603 744.622 60.6147C744.114 56.8262 744.167 52.9835 744.779 49.2104C745.362 45.8369 746.594 42.6087 748.408 39.7048C750.031 37.138 752.166 34.9336 754.68 33.2294C757.193 31.5252 760.031 30.3577 763.017 29.8001C766.064 29.2048 769.184 29.0825 772.268 29.4373C775.58 29.8473 778.829 30.6595 781.943 31.856C782.754 32.1583 783.552 32.497 784.362 32.8356L787.216 34.0449C789.103 34.8915 790.977 35.7743 792.803 36.7176C796.431 38.5922 800.06 40.6118 803.579 42.8733C810.629 47.3359 817.559 52.7418 825.275 58.5951C833.365 64.8205 841.902 70.4431 850.817 75.4174C860.11 80.3825 869.857 84.4445 879.926 87.5473C881.136 87.9585 882.417 88.2851 883.663 88.6479L887.013 89.6033C888.863 90.1475 890.738 90.7401 892.6 91.381C896.313 92.6871 899.99 94.1747 903.569 95.8315C917.876 102.507 930.381 111.868 939.282 124.034C943.886 130.237 947.693 136.994 950.614 144.146C952.185 147.886 953.514 151.724 954.593 155.635C955.752 159.686 956.697 163.795 957.422 167.946C958.148 172.167 958.716 176.496 959.067 180.898C959.249 182.966 959.382 185.663 959.551 188.155C959.72 190.646 959.974 193.125 960.264 195.592C961.421 205.348 963.259 215.01 965.767 224.508C968.186 233.905 971.185 242.999 974.233 251.937C975.769 256.411 977.304 260.85 978.671 265.24C980.143 269.531 981.03 274.002 981.307 278.531ZM984.936 278.531C984.923 276.057 984.672 273.591 984.186 271.166C983.762 268.747 983.206 266.461 982.662 264.163C981.574 259.556 980.4 255.008 979.433 250.437C978.465 245.866 977.607 241.306 977.014 236.723C976.422 232.139 976.035 227.544 975.805 222.96C975.477 213.875 976.061 204.779 977.546 195.81C977.885 193.585 978.32 191.384 978.756 189.195C979.191 187.006 979.711 184.974 980.219 182.374C981.253 177.364 982.008 172.301 982.481 167.208C983.507 156.623 983.014 145.945 981.017 135.499C978.892 124.58 974.917 114.106 969.262 104.527C963.469 94.9195 956.219 86.2702 947.772 78.8883C939.49 71.6363 930.268 65.5345 920.355 60.7478C915.478 58.3571 910.453 56.2809 905.311 54.5316C902.747 53.6246 900.135 52.8385 897.474 52.1129L891.016 50.3835C883.087 48.2208 875.355 45.3887 867.905 41.9179C860.175 38.2289 852.711 34.0061 845.568 29.28C837.889 24.4426 829.58 18.7948 820.365 13.8969C815.742 11.41 810.99 9.1695 806.131 7.1849C803.712 6.18112 801.293 5.2741 798.753 4.40335L795.029 3.19399C793.614 2.77071 792.187 2.35952 790.747 1.98462C784.847 0.485307 778.764 -0.170238 772.68 0.0375386C766.363 0.237877 760.13 1.53934 754.261 3.88333C748.27 6.2931 742.828 9.8883 738.261 14.4532C733.751 18.9555 730.254 24.3693 728.005 30.3322C725.893 35.9711 724.855 41.9558 724.946 47.9769C725.009 53.5852 725.889 59.1543 727.558 64.5089C730.794 74.3882 735.725 83.6286 742.131 91.8164C745.172 95.81 748.481 99.592 752.036 103.136C755.571 106.616 759.306 109.887 763.222 112.932C778.811 125.026 796.516 133.056 812.516 142.404C820.498 147.024 828.105 152.079 833.873 157.908C836.577 160.628 838.874 163.724 840.694 167.1C841.105 167.906 841.48 168.712 841.819 169.518C842.146 170.304 842.448 171.103 842.75 171.937C843.343 173.678 843.887 175.565 844.383 177.573C845.362 181.551 846.124 185.845 846.802 190.223C847.479 194.601 848.084 199.087 848.7 203.61L850.49 217.325C851.095 221.932 851.7 226.576 852.425 231.244C855.279 249.869 858.907 268.868 865.728 287.782C869.163 297.613 873.75 307.003 879.394 315.755C880.93 318.004 882.526 320.23 884.304 322.406C886.085 324.636 888.017 326.741 890.085 328.707C892.216 330.765 894.505 332.653 896.93 334.355C898.167 335.23 899.451 336.037 900.776 336.774L902.807 337.862C903.46 338.201 904.017 338.443 904.658 338.733C909.567 341.013 914.709 342.756 919.993 343.933C925.368 345.121 930.887 345.529 936.379 345.143C941.841 344.753 947.193 343.419 952.198 341.2C954.643 340.115 956.982 338.807 959.188 337.294C961.335 335.826 963.357 334.184 965.235 332.384C972.337 325.307 977.576 316.582 980.485 306.987C983.35 297.803 984.849 288.248 984.936 278.627V278.531Z" fill="#EBEBEB"/>
<path opacity="0.4" d="M829.048 318.984C824.045 309.437 820.324 299.271 817.983 288.75C815.455 278.265 813.847 267.562 812.274 256.738C811.44 251.332 810.69 245.854 809.699 240.375C808.772 234.74 807.52 229.164 805.95 223.674C804.283 217.756 801.886 212.068 798.814 206.743C795.261 200.67 790.383 195.478 784.544 191.553C782.984 190.525 781.303 189.666 779.706 188.747C778.11 187.828 776.247 187.248 774.482 186.558C772.716 185.869 770.854 185.47 769.088 185.01C767.322 184.551 765.46 184.345 763.658 184.043C756.711 183.12 749.667 183.213 742.748 184.321C735.962 185.402 729.333 187.311 723.011 190.005C717.089 192.565 711.39 195.611 705.971 199.112C696.132 205.628 686.779 212.851 677.986 220.723L665.602 231.607C663.583 233.385 661.539 235.078 659.556 236.783L656.544 239.311L653.533 241.73C649.62 244.863 645.551 247.798 641.343 250.522C637.365 253.122 633.173 255.38 628.813 257.27C624.179 259.162 619.388 260.643 614.495 261.696C609.391 262.906 604.07 263.801 598.616 264.599C587.731 266.207 576.363 267.223 564.862 268.553L556.215 269.63C553.301 270.053 550.41 270.488 547.484 271.021C541.544 272.014 535.69 273.462 529.972 275.35C523.99 277.284 518.355 280.162 513.283 283.876C508.155 287.722 503.97 292.685 501.044 298.388C499.646 301.143 498.52 304.027 497.682 306.999L496.593 311.389C496.291 312.84 496.098 314.243 495.844 315.682C494.991 321.434 494.663 327.25 494.864 333.061C495.156 338.911 496.014 344.719 497.428 350.403C497.815 351.818 498.105 353.27 498.565 354.66L499.919 358.857C500.959 361.602 502.011 364.359 503.257 367.02C508.248 377.746 514.806 387.671 522.716 396.468C526.61 400.908 530.761 405.116 535.148 409.07C539.478 413.097 544.097 416.761 548.79 420.329C551.208 422.046 553.53 423.848 555.985 425.469L559.614 427.96L563.326 430.379C568.317 433.507 573.412 436.45 578.613 439.207C581.213 440.574 583.837 441.892 586.461 443.222C589.086 444.553 591.771 445.738 594.443 446.935C597.116 448.132 599.801 449.354 602.522 450.43C605.243 451.506 607.94 452.655 610.697 453.659L626.419 459.537C628.983 460.492 631.498 461.52 634.026 462.512L637.823 464.011L641.584 465.571C661.542 473.817 680.977 483.276 699.779 493.895C709.224 499.228 718.585 504.779 728.743 510.391C733.811 513.233 739.18 515.99 745.058 518.614C751.285 521.42 757.764 523.631 764.408 525.217C771.539 526.881 778.856 527.617 786.176 527.406C793.139 527.192 800.059 526.24 806.82 524.564C810.11 523.851 813.169 522.895 816.277 521.988C817.813 521.505 819.289 520.973 820.788 520.477C822.288 519.981 823.763 519.473 825.311 518.832L829.883 516.994L832.156 516.05L834.418 514.95C837.477 513.531 840.452 511.94 843.331 510.185C844.782 509.29 846.234 508.419 847.673 507.488L851.857 504.404L853.913 502.844C854.602 502.312 855.231 501.695 855.896 501.115L859.766 497.583C860.976 496.374 862.185 494.971 863.322 493.677L865.063 491.694C865.62 491.016 866.116 490.291 866.648 489.577C867.676 488.15 868.716 486.735 869.707 485.296C870.699 483.857 871.461 482.273 872.307 480.749C875.493 474.779 877.756 468.361 879.019 461.714L879.515 459.295C879.648 458.485 879.733 457.686 879.83 456.876C880.023 455.28 880.229 453.683 880.362 452.039C880.539 448.917 880.559 445.789 880.422 442.666C880.149 436.652 879.364 430.672 878.076 424.792C876.812 419.136 875.229 413.556 873.335 408.078C869.602 397.467 865.212 387.099 860.19 377.034C858.98 374.554 857.771 372.039 856.465 369.596C855.159 367.153 854.046 364.662 852.679 362.231C851.313 359.8 850.091 357.394 848.785 354.975L844.879 347.719L829.048 318.984ZM825.832 320.629C831.008 330.207 835.821 339.979 840.102 349.956L841.698 353.693L843.198 357.466C844.226 359.969 845.133 362.521 846.052 365.061C847.927 370.128 849.547 375.28 851.047 380.444C854.035 390.641 856.091 401.089 857.19 411.658C857.725 416.771 857.955 421.912 857.88 427.053C857.772 431.972 857.266 436.873 856.368 441.711C856.041 444.129 855.304 446.318 854.772 448.568L853.671 451.797C853.478 452.329 853.32 452.861 853.127 453.381L852.438 454.905C850.798 458.816 848.62 462.48 845.967 465.789C845.302 466.587 844.637 467.361 844.02 468.208L841.844 470.385C841.481 470.747 841.142 471.134 840.767 471.473L839.558 472.453C838.748 473.094 837.998 473.783 837.139 474.412L834.539 476.202C834.104 476.504 833.704 476.831 833.245 477.097L831.83 477.907L829.036 479.54L826.025 480.979C821.852 482.957 817.539 484.627 813.121 485.973C812.033 486.36 810.811 486.687 809.602 487.013C808.392 487.34 807.183 487.703 805.974 487.993C803.615 488.513 801.245 489.142 798.971 489.493C794.685 490.332 790.326 490.737 785.959 490.702C781.967 490.642 777.997 490.11 774.131 489.118C766.306 487.122 757.575 482.865 748.105 477.798C743.377 475.295 738.551 472.634 733.593 469.937C728.635 467.24 723.567 464.616 718.476 461.98C697.812 451.442 676.43 442.378 654.488 434.853L650.449 433.426L646.325 432.072C643.58 431.177 640.835 430.246 638.077 429.399L621.932 424.477C616.792 422.893 611.701 421.212 606.634 419.482L599.099 416.761C596.608 415.806 594.117 414.863 591.638 413.883C586.74 411.851 581.793 409.856 577.028 407.582L573.4 405.913L569.857 404.16C567.438 403.023 565.201 401.741 562.867 400.532C553.712 395.568 545.061 389.728 537.035 383.093C533.117 379.795 529.436 376.227 526.017 372.414C522.615 368.679 519.574 364.629 516.935 360.32C511.594 351.769 508.211 342.142 507.03 332.13C506.504 327.091 506.529 322.01 507.103 316.976C507.284 315.767 507.405 314.437 507.623 313.203L508.373 309.575C508.999 307.268 509.841 305.024 510.888 302.875C512.974 298.622 516.082 294.953 519.934 292.197C524.047 289.344 528.633 287.243 533.479 285.992C538.631 284.643 543.892 283.752 549.201 283.332C554.595 282.884 560.085 282.727 565.648 282.776C576.75 282.836 588.07 283.525 599.74 283.767C605.594 283.852 611.544 283.767 617.663 283.404C624.013 283.048 630.32 282.15 636.517 280.72C649.711 277.491 661.079 271.577 671.371 264.998C691.809 251.767 707.906 235.973 724.257 224.351C732.396 218.558 740.45 213.938 748.746 211.399C752.917 210.12 757.232 209.372 761.59 209.173C765.549 208.822 769.535 209.406 773.228 210.876C776.92 212.346 780.216 214.663 782.851 217.639C786.137 221.199 788.953 225.166 791.232 229.442C793.703 234.017 795.912 238.729 797.847 243.556C799.794 248.526 801.644 253.618 803.325 258.77C806.784 269.073 809.819 279.607 813.29 290.02C816.581 300.562 820.768 310.802 825.807 320.629H825.832Z" fill="#EBEBEB"/>
<path opacity="0.4" d="M492.36 72.8897C493.88 76.1457 495.621 79.2934 497.572 82.3107C498.467 83.7619 499.411 85.1285 500.354 86.5072C501.297 87.8859 502.289 89.1799 503.281 90.4497C505.24 93.0378 507.296 95.4202 509.328 97.8027C517.624 107.175 526.658 115.218 535.51 123.199L538.643 126.041L540.021 127.251L541.364 128.666C542.271 129.573 543.069 130.613 543.915 131.604C544.762 132.596 545.512 133.733 546.334 134.846C547.157 135.958 547.858 137.095 548.559 138.304C549.261 139.514 549.974 140.723 550.64 141.932C551.934 144.351 553.252 146.976 554.401 149.612C559.238 160.182 562.866 171.538 568.441 182.918C571.362 188.974 575.228 194.525 579.894 199.365C582.447 201.926 585.288 204.182 588.36 206.089C589.924 207.047 591.539 207.919 593.197 208.702C594.032 209.089 594.866 209.5 595.713 209.838L598.276 210.794C601.685 211.972 605.189 212.855 608.75 213.43C610.539 213.757 612.474 213.854 614.373 214.023C616.272 214.192 618.122 214.023 620.021 214.023C621.92 214.023 623.649 213.696 625.572 213.491C626.478 213.383 627.378 213.229 628.269 213.031L630.954 212.487L632.296 212.197L633.59 211.822L636.178 211.048C637.889 210.557 639.569 209.963 641.209 209.27C647.625 206.706 653.692 203.342 659.265 199.256C664.635 195.274 669.591 190.761 674.055 185.784C678.408 180.852 682.249 175.491 685.52 169.784C686.331 168.357 687.105 166.918 687.866 165.491C688.628 164.064 689.269 162.528 689.959 161.053C690.648 159.577 691.277 158.078 691.857 156.554C692.438 155.03 693.067 153.542 693.55 151.97C695.634 145.84 697.22 139.551 698.291 133.165C699.379 126.892 699.961 120.543 700.033 114.178C700.152 107.959 699.682 101.744 698.63 95.6137C697.59 89.5607 695.666 83.6932 692.922 78.1988C690.022 72.6287 685.885 67.7966 680.828 64.0734C675.677 60.3847 670.046 57.4184 664.09 55.2571C652.201 50.956 639.902 47.8842 627.386 46.0901C621.206 45.1468 615.063 44.518 608.979 44.131C608.389 44.1045 607.803 44.0276 607.226 43.9012L605.811 43.6472C604.843 43.357 603.924 43.2723 602.969 42.9337L601.566 42.5346C601.094 42.3653 600.623 42.1718 600.151 42.0388C599.208 41.7848 598.216 41.289 597.261 40.9866C592.897 39.2078 588.648 37.16 584.538 34.8551L577.367 30.8279L573.533 28.6632L569.421 26.4984C566.688 24.9988 563.628 23.5596 560.484 22.1326C557.069 20.6411 553.563 19.3687 549.986 18.3231C545.953 17.142 541.806 16.388 537.615 16.0737C533.039 15.7234 528.437 16.0001 523.937 16.896L522.219 17.2226L520.55 17.67C519.45 17.9845 518.325 18.2868 517.225 18.6375C515.113 19.3803 513.049 20.2527 511.045 21.2497L508.13 22.7615L505.458 24.4183C503.73 25.5388 502.063 26.7498 500.463 28.0464C500.04 28.3608 499.713 28.6027 499.254 29.0018C498.794 29.4009 498.044 30.066 497.427 30.6223C496.171 31.7551 495.017 32.9976 493.981 34.3351C493.727 34.6616 493.449 35.0002 493.195 35.351L492.457 36.4757C491.985 37.2376 491.538 37.9874 491.09 38.7614C490.289 40.3207 489.606 41.9377 489.046 43.5989C488.805 44.4212 488.587 45.2315 488.381 46.0176C488.272 46.4288 488.176 46.8521 488.103 47.227L487.91 48.4363C487.801 49.2103 487.716 49.9964 487.632 50.7825C487.547 51.5686 487.571 52.2458 487.547 52.9835C487.523 53.7212 487.547 54.4469 487.547 55.1483L487.716 57.1317C487.789 57.7726 487.837 58.4741 487.946 59.0787L488.297 60.9412C489.183 65.0681 490.547 69.0779 492.36 72.8897Z" fill="#EBEBEB"/>
<path opacity="0.4" d="M891.258 392.731C890.662 396.189 890.415 399.697 890.52 403.204C890.786 409.6 891.883 415.934 893.786 422.046C895.431 428.007 897.529 433.833 900.062 439.473C902.636 445.14 905.885 450.476 909.737 455.364C913.762 460.45 918.448 464.977 923.669 468.825C929.522 472.925 936.251 475.605 943.321 476.649C947.069 477.21 950.873 477.287 954.641 476.879C958.28 476.472 961.836 475.514 965.187 474.037C968.159 472.702 970.941 470.977 973.459 468.909C975.711 467.025 977.848 465.005 979.856 462.862C980.896 461.74 981.831 460.526 982.65 459.234C983.421 457.879 984.08 456.464 984.621 455.002C985.636 451.981 986.341 448.865 986.725 445.701C987.627 439.125 987.7 432.462 986.943 425.868C986.224 419.536 984.163 413.429 980.896 407.957C977.736 402.77 973.566 398.271 968.633 394.727C963.542 391.273 958.063 388.432 952.307 386.261C946.574 383.987 941.023 381.847 935.751 379.356C930.478 376.864 925.374 374.095 918.952 372.099C917.238 371.557 915.477 371.176 913.692 370.963C911.61 370.683 909.499 370.715 907.427 371.059C904.647 371.596 902.055 372.846 899.905 374.687C899.371 375.155 898.862 375.652 898.381 376.175C897.934 376.683 897.486 377.203 897.063 377.747C896.321 378.753 895.654 379.812 895.067 380.916C894.524 381.927 894.04 382.969 893.616 384.036C893.253 385.003 892.842 386.068 892.588 386.999L892.165 388.462L891.814 389.877C891.585 390.905 891.427 391.8 891.258 392.731Z" fill="#EBEBEB"/>
</g>
<g opacity="0.4">
<path opacity="0.4" d="M549.649 189.715C521.216 167.632 492.615 171.925 492.615 171.925C492.615 171.925 492.482 200.853 518.435 225.803C540.336 246.858 561.126 245.66 568.297 237.388C575.469 229.116 573.642 208.339 549.649 189.715Z" fill="#EBEBEB"/>
<path opacity="0.4" d="M552.806 203.997C534.787 189.993 516.658 192.726 516.658 192.726C516.658 192.726 516.573 211.048 533.021 226.879C546.904 240.182 560.099 239.468 564.634 234.22C569.169 228.971 568.02 215.801 552.806 203.997Z" fill="white"/>
</g>
<path d="M539.756 211.556L541.909 209.839C542.056 209.722 542.178 209.578 542.27 209.414C542.361 209.249 542.419 209.069 542.44 208.883C542.461 208.696 542.446 208.507 542.394 208.327C542.342 208.146 542.255 207.978 542.138 207.831C542.021 207.685 541.876 207.563 541.711 207.473C541.547 207.383 541.366 207.326 541.18 207.306C540.993 207.286 540.805 207.303 540.625 207.355C540.445 207.408 540.277 207.496 540.131 207.613L537.978 209.331C537.832 209.447 537.711 209.591 537.621 209.755C537.531 209.918 537.474 210.098 537.454 210.283C537.434 210.469 537.451 210.656 537.503 210.835C537.556 211.014 537.643 211.181 537.76 211.326C537.876 211.473 538.019 211.595 538.182 211.686C538.345 211.777 538.525 211.835 538.71 211.857C538.896 211.878 539.084 211.862 539.263 211.811C539.443 211.759 539.61 211.673 539.756 211.556Z" fill="#EBEBEB"/>
<path d="M564.029 233.7L565.528 231.39C565.734 231.074 565.807 230.689 565.73 230.319C565.653 229.95 565.432 229.626 565.117 229.419C564.96 229.315 564.784 229.243 564.599 229.207C564.414 229.172 564.224 229.173 564.04 229.211C563.855 229.25 563.68 229.324 563.525 229.43C563.369 229.536 563.236 229.672 563.134 229.83L561.634 232.14C561.429 232.457 561.359 232.843 561.438 233.213C561.517 233.582 561.74 233.905 562.057 234.111C562.374 234.317 562.759 234.389 563.128 234.312C563.497 234.235 563.821 234.015 564.029 233.7Z" fill="#EBEBEB"/>
<path d="M549.854 207.166H551.341C551.529 207.159 551.713 207.116 551.884 207.039C552.054 206.961 552.208 206.851 552.336 206.714C552.464 206.577 552.564 206.416 552.63 206.24C552.696 206.064 552.726 205.878 552.72 205.69C552.714 205.503 552.67 205.318 552.593 205.148C552.515 204.977 552.405 204.823 552.268 204.695C552.131 204.567 551.97 204.467 551.794 204.401C551.619 204.335 551.432 204.305 551.244 204.311H549.769C549.582 204.316 549.398 204.358 549.227 204.434C549.057 204.51 548.903 204.62 548.775 204.756C548.646 204.892 548.546 205.052 548.48 205.227C548.415 205.402 548.384 205.588 548.39 205.775C548.395 205.962 548.437 206.147 548.513 206.318C548.589 206.489 548.698 206.644 548.834 206.773C548.97 206.902 549.13 207.004 549.305 207.071C549.48 207.138 549.666 207.17 549.854 207.166Z" fill="#EBEBEB"/>
<path d="M536.163 225.052V223.577C536.159 223.39 536.117 223.206 536.041 223.035C535.964 222.864 535.855 222.711 535.719 222.582C535.583 222.454 535.423 222.354 535.248 222.288C535.073 222.222 534.887 222.192 534.7 222.198C534.512 222.203 534.328 222.244 534.156 222.321C533.985 222.397 533.83 222.506 533.701 222.642C533.572 222.777 533.471 222.938 533.404 223.113C533.336 223.288 533.304 223.474 533.309 223.661V225.149C533.314 225.336 533.355 225.52 533.432 225.691C533.508 225.861 533.617 226.015 533.753 226.143C533.889 226.272 534.05 226.372 534.224 226.438C534.399 226.503 534.586 226.534 534.772 226.528C534.961 226.523 535.147 226.481 535.319 226.404C535.491 226.327 535.646 226.217 535.775 226.08C535.905 225.943 536.006 225.781 536.072 225.605C536.139 225.428 536.17 225.241 536.163 225.052Z" fill="#EBEBEB"/>
<path d="M567.693 225.488L567.862 224.024C567.904 223.655 567.801 223.284 567.576 222.989C567.35 222.694 567.02 222.497 566.653 222.44C566.274 222.399 565.895 222.51 565.598 222.748C565.301 222.986 565.111 223.332 565.068 223.71L564.911 225.173C564.866 225.541 564.968 225.913 565.194 226.207C565.42 226.501 565.753 226.694 566.12 226.745C566.306 226.767 566.495 226.752 566.675 226.7C566.855 226.649 567.023 226.562 567.169 226.445C567.316 226.328 567.437 226.183 567.527 226.019C567.617 225.854 567.673 225.674 567.693 225.488Z" fill="#EBEBEB"/>
<path d="M543.686 238.379L545.065 238.924C545.24 238.992 545.426 239.025 545.614 239.022C545.801 239.018 545.986 238.977 546.158 238.902C546.33 238.827 546.485 238.719 546.615 238.583C546.745 238.448 546.847 238.288 546.915 238.113C546.984 237.939 547.017 237.752 547.013 237.565C547.01 237.377 546.969 237.192 546.894 237.02C546.819 236.848 546.71 236.693 546.575 236.563C546.439 236.433 546.28 236.331 546.105 236.263L544.726 235.731C544.375 235.592 543.983 235.598 543.636 235.748C543.289 235.897 543.016 236.178 542.876 236.529C542.806 236.704 542.771 236.89 542.774 237.078C542.777 237.266 542.817 237.452 542.893 237.624C542.968 237.797 543.077 237.952 543.213 238.082C543.35 238.211 543.51 238.313 543.686 238.379Z" fill="#EBEBEB"/>
<path d="M548.642 238.516C539.608 237.507 533.102 229.366 534.11 220.332C535.119 211.297 543.26 204.791 552.294 205.8C561.329 206.808 567.835 214.95 566.826 223.984C565.818 233.018 557.676 239.524 548.642 238.516Z" fill="#EBEBEB"/>
<path d="M557.521 213.152C557.478 213.944 557.177 214.701 556.663 215.305C556.151 215.933 555.478 216.409 554.716 216.684C553.93 216.971 553.064 216.945 552.297 216.611C551.568 216.289 550.977 215.719 550.628 215.003C551.16 215.499 551.797 215.871 552.491 216.091C552.816 216.186 553.156 216.223 553.494 216.2C553.833 216.19 554.168 216.124 554.486 216.006L554.97 215.813C555.127 215.728 555.284 215.656 555.429 215.559C555.728 215.378 556.007 215.167 556.264 214.93C556.798 214.428 557.226 213.823 557.521 213.152Z" fill="#C7C7C7"/>
<path d="M551.534 213.442C551.525 212.886 551.709 212.343 552.054 211.907C552.402 211.457 552.873 211.117 553.408 210.927C553.945 210.722 554.54 210.734 555.068 210.959C555.596 211.185 556.016 211.607 556.238 212.136C555.852 211.832 555.407 211.61 554.932 211.483C554.507 211.38 554.061 211.405 553.65 211.556C552.733 211.896 551.977 212.57 551.534 213.442Z" fill="#C7C7C7"/>
<path d="M544.727 224.049C544.876 224.572 544.829 225.131 544.594 225.621C544.368 226.129 543.987 226.552 543.506 226.83C543.262 226.984 542.989 227.086 542.704 227.129C542.419 227.173 542.128 227.158 541.849 227.084C541.32 226.954 540.858 226.63 540.555 226.177C540.99 226.378 541.456 226.501 541.933 226.54C542.36 226.552 542.78 226.439 543.143 226.214C543.526 225.994 543.859 225.697 544.122 225.343C544.402 224.952 544.607 224.514 544.727 224.049Z" fill="#C7C7C7"/>
<path d="M541.135 225.524C541.06 225.35 541.021 225.163 541.021 224.973C541.021 224.784 541.06 224.597 541.135 224.423C541.285 224.053 541.553 223.743 541.897 223.54C542.076 223.43 542.276 223.358 542.484 223.329C542.692 223.3 542.904 223.314 543.106 223.371C543.29 223.425 543.461 223.517 543.609 223.639C543.756 223.762 543.878 223.914 543.965 224.084C543.656 223.984 543.334 223.931 543.009 223.927C542.748 223.941 542.494 224.02 542.272 224.157C541.754 224.477 541.355 224.956 541.135 225.524Z" fill="#C7C7C7"/>
<path d="M539.272 219.756C539.401 219.906 539.499 220.081 539.559 220.27C539.62 220.459 539.641 220.659 539.622 220.856C539.603 221.07 539.54 221.278 539.438 221.467C539.337 221.656 539.198 221.823 539.03 221.957C538.862 222.091 538.666 222.185 538.457 222.233C538.247 222.281 538.03 222.282 537.82 222.235C537.438 222.151 537.096 221.938 536.853 221.63C537.191 221.659 537.531 221.659 537.869 221.63C538.143 221.625 538.408 221.527 538.619 221.352C538.835 221.176 539.002 220.947 539.102 220.687C539.209 220.388 539.266 220.073 539.272 219.756Z" fill="#C7C7C7"/>
<path d="M537.071 221.11C536.959 221.019 536.87 220.902 536.813 220.769C536.756 220.637 536.733 220.492 536.745 220.348C536.751 220.188 536.792 220.031 536.865 219.889C536.938 219.747 537.041 219.623 537.168 219.525C537.294 219.421 537.443 219.348 537.604 219.315C537.764 219.281 537.93 219.287 538.087 219.332C538.225 219.367 538.354 219.431 538.466 219.518C538.579 219.605 538.672 219.715 538.74 219.84C538.505 219.844 538.271 219.864 538.039 219.9C537.885 219.924 537.739 219.986 537.616 220.082C537.483 220.188 537.372 220.32 537.289 220.469C537.189 220.672 537.116 220.887 537.071 221.11Z" fill="#C7C7C7"/>
<path d="M562.238 217.421C562.235 217.621 562.192 217.819 562.111 218.001C562.03 218.184 561.913 218.349 561.767 218.485C561.605 218.636 561.414 218.751 561.206 218.824C560.998 218.897 560.777 218.926 560.557 218.909C560.337 218.899 560.121 218.838 559.928 218.731C559.735 218.624 559.57 218.474 559.445 218.292C559.219 217.971 559.108 217.583 559.13 217.191C559.35 217.45 559.593 217.689 559.856 217.905C560.068 218.071 560.325 218.172 560.594 218.195C560.874 218.209 561.153 218.151 561.404 218.026C561.713 217.871 561.995 217.666 562.238 217.421Z" fill="#C7C7C7"/>
<path d="M559.687 216.949C559.667 216.807 559.681 216.661 559.727 216.525C559.773 216.388 559.851 216.265 559.953 216.163C560.064 216.049 560.198 215.96 560.346 215.902C560.494 215.843 560.653 215.817 560.811 215.824C560.964 215.833 561.113 215.875 561.248 215.947C561.383 216.019 561.5 216.119 561.592 216.241C561.684 216.363 561.749 216.504 561.781 216.653C561.813 216.803 561.813 216.957 561.779 217.106C561.561 216.937 561.392 216.792 561.223 216.683C561.085 216.604 560.933 216.554 560.775 216.538C560.606 216.531 560.437 216.56 560.279 216.623C560.067 216.703 559.868 216.813 559.687 216.949Z" fill="#C7C7C7"/>
<path d="M551.812 227.507C552.431 227.87 553.142 228.041 553.858 228C554.573 227.959 555.261 227.707 555.833 227.275C556.405 226.844 556.837 226.253 557.074 225.576C557.311 224.9 557.341 224.168 557.163 223.474C556.984 222.78 556.604 222.154 556.07 221.676C555.537 221.198 554.873 220.888 554.164 220.787C553.454 220.685 552.73 220.796 552.084 221.105C551.437 221.414 550.897 221.908 550.531 222.524C550.286 222.935 550.126 223.39 550.058 223.864C549.99 224.337 550.016 224.819 550.136 225.282C550.255 225.745 550.464 226.18 550.752 226.562C551.04 226.944 551.4 227.265 551.812 227.507Z" fill="#DBDBDB"/>
<path d="M555.549 222.851C555.996 223.114 556.375 223.48 556.654 223.917C556.934 224.354 557.106 224.85 557.158 225.367C557.322 224.78 557.337 224.162 557.2 223.569C557.063 222.976 556.779 222.427 556.374 221.972C555.969 221.518 555.456 221.173 554.882 220.968C554.309 220.764 553.693 220.707 553.092 220.803C552.491 220.899 551.924 221.145 551.443 221.518C550.961 221.891 550.582 222.379 550.339 222.937C550.096 223.495 549.997 224.106 550.051 224.712C550.106 225.318 550.313 225.901 550.652 226.407C550.523 225.787 550.575 225.144 550.802 224.554C551.028 223.964 551.42 223.451 551.929 223.076C552.439 222.702 553.045 222.481 553.676 222.441C554.307 222.402 554.936 222.544 555.489 222.851H555.549Z" fill="#C7C7C7"/>
<path d="M558.537 225.536C558.445 226.499 558.061 227.41 557.437 228.148C556.792 228.906 555.957 229.478 555.018 229.805C554.07 230.18 553.015 230.18 552.067 229.805C551.201 229.389 550.499 228.695 550.072 227.834C550.705 228.479 551.485 228.96 552.345 229.237C552.55 229.302 552.761 229.351 552.974 229.382C553.187 229.406 553.402 229.406 553.615 229.382C554.029 229.369 554.437 229.287 554.824 229.14L555.429 228.898C555.623 228.789 555.816 228.705 555.997 228.584C556.376 228.356 556.728 228.088 557.05 227.786C557.689 227.141 558.194 226.377 558.537 225.536Z" fill="#C7C7C7"/>
<path d="M562.396 227.35C562.564 227.41 562.742 227.435 562.921 227.426C563.099 227.417 563.274 227.372 563.435 227.295C563.596 227.218 563.741 227.11 563.86 226.978C563.979 226.845 564.072 226.69 564.131 226.522C564.191 226.353 564.216 226.175 564.207 225.996C564.198 225.818 564.153 225.643 564.076 225.482C563.999 225.321 563.892 225.177 563.759 225.057C563.626 224.938 563.471 224.846 563.303 224.786C562.963 224.673 562.592 224.697 562.269 224.853C561.946 225.009 561.697 225.284 561.573 225.621C561.453 225.959 561.472 226.331 561.626 226.656C561.781 226.98 562.057 227.23 562.396 227.35Z" fill="#DBDBDB"/>
<path d="M563.376 225.415C563.558 225.479 563.723 225.586 563.855 225.727C563.988 225.868 564.085 226.039 564.138 226.225C564.168 225.925 564.096 225.623 563.934 225.368C563.771 225.114 563.528 224.921 563.243 224.822C562.903 224.709 562.532 224.733 562.209 224.889C561.886 225.045 561.637 225.32 561.513 225.657C561.428 225.899 561.413 226.161 561.471 226.412C561.529 226.662 561.657 226.891 561.84 227.072C561.726 226.784 561.726 226.464 561.84 226.177C561.89 226.026 561.97 225.886 562.075 225.766C562.18 225.646 562.307 225.547 562.45 225.477C562.592 225.406 562.748 225.364 562.907 225.353C563.065 225.343 563.225 225.364 563.376 225.415Z" fill="#C7C7C7"/>
<path d="M564.741 226.152C564.795 226.513 564.732 226.883 564.559 227.204C564.377 227.534 564.109 227.81 563.785 228.003C563.452 228.206 563.053 228.271 562.673 228.184C562.313 228.101 561.995 227.89 561.778 227.591C562.067 227.761 562.388 227.868 562.721 227.906C563.031 227.926 563.339 227.85 563.604 227.688C563.888 227.523 564.135 227.301 564.33 227.037C564.526 226.773 564.665 226.472 564.741 226.152Z" fill="#C7C7C7"/>
<path d="M552.139 235.09C552.517 235.154 552.905 235.105 553.254 234.948C553.604 234.792 553.899 234.535 554.103 234.21C554.306 233.886 554.409 233.508 554.398 233.126C554.386 232.743 554.262 232.372 554.04 232.06C553.818 231.748 553.508 231.509 553.15 231.373C552.792 231.237 552.401 231.211 552.028 231.297C551.655 231.383 551.316 231.578 551.053 231.857C550.791 232.136 550.618 232.487 550.555 232.864C550.511 233.115 550.518 233.371 550.575 233.619C550.631 233.866 550.736 234.1 550.883 234.307C551.03 234.514 551.217 234.69 551.433 234.824C551.648 234.958 551.888 235.049 552.139 235.09Z" fill="#DBDBDB"/>
<path d="M553.107 232.054C553.378 232.1 553.635 232.209 553.855 232.373C554.076 232.537 554.255 232.751 554.377 232.997C554.347 232.523 554.142 232.077 553.802 231.744C553.463 231.412 553.012 231.217 552.537 231.198C552.062 231.178 551.597 231.335 551.231 231.639C550.865 231.942 550.624 232.37 550.555 232.84C550.495 233.202 550.538 233.573 550.679 233.911C550.821 234.249 551.054 234.54 551.354 234.751C551.125 234.392 551.031 233.964 551.087 233.542C551.12 233.31 551.198 233.088 551.318 232.887C551.437 232.686 551.596 232.511 551.784 232.373C551.972 232.234 552.186 232.135 552.414 232.08C552.641 232.025 552.877 232.016 553.107 232.054Z" fill="#C7C7C7"/>
<path d="M555.114 232.805C555.245 233.299 555.224 233.822 555.054 234.304C554.888 234.798 554.591 235.237 554.195 235.574C553.788 235.923 553.268 236.112 552.732 236.106C552.215 236.084 551.72 235.888 551.329 235.55C551.763 235.753 552.24 235.848 552.72 235.828C553.167 235.786 553.59 235.604 553.929 235.308C554.286 235.006 554.575 234.631 554.775 234.208C554.986 233.769 555.101 233.291 555.114 232.805Z" fill="#C7C7C7"/>
<path d="M545.658 215.571C545.3 216.132 544.78 216.57 544.167 216.828C543.554 217.086 542.877 217.151 542.226 217.015C541.575 216.879 540.981 216.548 540.522 216.066C540.064 215.584 539.763 214.974 539.659 214.317C539.555 213.66 539.654 212.987 539.942 212.388C540.23 211.788 540.693 211.291 541.271 210.961C541.848 210.631 542.513 210.485 543.175 210.541C543.838 210.598 544.468 210.855 544.981 211.278C545.638 211.759 546.078 212.481 546.205 213.285C546.331 214.089 546.135 214.911 545.658 215.571Z" fill="#DBDBDB"/>
<path d="M541.159 212.74C540.89 213.075 540.712 213.473 540.64 213.897C540.568 214.32 540.605 214.754 540.748 215.159C540.31 214.642 540.061 213.993 540.041 213.316C540.021 212.639 540.232 211.976 540.639 211.434C541.199 210.845 541.968 210.5 542.78 210.472C543.592 210.445 544.382 210.739 544.98 211.289C545.446 211.656 545.803 212.142 546.016 212.695C546.229 213.249 546.289 213.849 546.19 214.433C546.042 213.72 545.654 213.08 545.089 212.619C544.55 212.117 543.835 211.849 543.099 211.871C542.363 211.894 541.666 212.206 541.159 212.74Z" fill="#C7C7C7"/>
<path d="M546.964 213.503C547.334 214.257 547.39 215.126 547.122 215.922C546.981 216.328 546.754 216.7 546.456 217.01C546.172 217.336 545.82 217.596 545.426 217.773C545.031 217.951 544.603 218.041 544.171 218.038C543.761 218.047 543.353 217.99 542.961 217.869C542.19 217.635 541.485 217.22 540.905 216.659C541.606 216.95 542.336 217.165 543.082 217.3C543.777 217.424 544.493 217.353 545.15 217.095C545.46 216.945 545.746 216.75 545.997 216.514C546.259 216.285 546.473 216.005 546.626 215.692C546.934 215.006 547.051 214.25 546.964 213.503Z" fill="#C7C7C7"/>
<g opacity="0.4">
<path opacity="0.4" d="M83.0334 227.126C54.6011 205.043 25.9996 209.337 25.9996 209.337C25.9996 209.337 25.8666 238.265 51.8196 263.214C73.7212 284.269 94.5103 283.072 101.682 274.8C108.853 266.527 107.027 245.751 83.0334 227.126Z" fill="#EBEBEB"/>
<path opacity="0.4" d="M86.1909 241.409C68.1713 227.404 50.0429 230.137 50.0429 230.137C50.0429 230.137 49.9582 248.459 66.4056 264.29C80.2891 277.593 93.4833 276.879 98.0185 271.631C102.554 266.382 101.405 253.212 86.1909 241.409Z" fill="white"/>
</g>
<path d="M73.1407 248.967L75.2933 247.25C75.4404 247.133 75.5631 246.989 75.6543 246.825C75.7455 246.661 75.8034 246.48 75.8247 246.294C75.8461 246.107 75.8304 245.918 75.7787 245.738C75.7269 245.558 75.6401 245.389 75.5231 245.242C75.4057 245.096 75.2605 244.974 75.096 244.884C74.9315 244.794 74.7509 244.738 74.5645 244.717C74.378 244.697 74.1894 244.714 74.0094 244.767C73.8294 244.819 73.6616 244.907 73.5156 245.025L71.3629 246.742C71.2171 246.858 71.0957 247.002 71.0058 247.166C70.9159 247.329 70.8592 247.509 70.839 247.694C70.8187 247.88 70.8354 248.067 70.8879 248.246C70.9405 248.425 71.0279 248.592 71.1452 248.737C71.2607 248.884 71.4041 249.006 71.5671 249.097C71.7302 249.188 71.9096 249.246 72.0951 249.268C72.2806 249.289 72.4685 249.274 72.6479 249.222C72.8274 249.17 72.9948 249.084 73.1407 248.967Z" fill="#EBEBEB"/>
<path d="M97.4135 271.111L98.9131 268.801C99.1191 268.485 99.1915 268.1 99.1145 267.731C99.0374 267.361 98.8171 267.037 98.5019 266.83C98.3449 266.726 98.1689 266.654 97.984 266.618C97.7991 266.583 97.609 266.584 97.4246 266.622C97.2402 266.661 97.0653 266.735 96.9097 266.841C96.7542 266.947 96.6213 267.083 96.5185 267.241L95.0189 269.551C94.814 269.869 94.7435 270.254 94.8228 270.624C94.9022 270.994 95.1249 271.317 95.4422 271.522C95.7584 271.728 96.1433 271.801 96.5127 271.724C96.8821 271.646 97.206 271.426 97.4135 271.111Z" fill="#EBEBEB"/>
<path d="M83.2384 244.577H84.7259C84.9134 244.57 85.0977 244.527 85.2685 244.45C85.4393 244.372 85.593 244.262 85.7211 244.125C85.8491 243.988 85.9489 243.827 86.0147 243.651C86.0805 243.476 86.1111 243.289 86.1046 243.101C86.0984 242.914 86.0552 242.729 85.9777 242.559C85.9002 242.388 85.7897 242.234 85.6527 242.106C85.5156 241.978 85.3547 241.878 85.1791 241.812C85.0035 241.747 84.8166 241.716 84.6292 241.723H83.1538C82.9669 241.727 82.7828 241.769 82.6121 241.845C82.4414 241.921 82.2875 242.031 82.1593 242.167C82.0311 242.303 81.9312 242.463 81.8652 242.638C81.7993 242.813 81.7686 242.999 81.7751 243.186C81.7798 243.373 81.8214 243.558 81.8975 243.729C81.9736 243.901 82.0827 244.055 82.2186 244.184C82.3545 244.314 82.5145 244.415 82.6895 244.482C82.8645 244.549 83.051 244.581 83.2384 244.577Z" fill="#EBEBEB"/>
<path d="M69.5499 262.463V260.988C69.5453 260.801 69.5036 260.617 69.4273 260.446C69.3511 260.276 69.2418 260.122 69.1057 259.993C68.9697 259.865 68.8095 259.765 68.6346 259.699C68.4597 259.633 68.2735 259.603 68.0866 259.609C67.8992 259.614 67.7145 259.656 67.5432 259.732C67.3719 259.808 67.2172 259.917 67.088 260.053C66.9589 260.189 66.8577 260.349 66.7904 260.524C66.7232 260.699 66.691 260.885 66.6959 261.073V262.56C66.7005 262.747 66.7422 262.931 66.8184 263.102C66.8947 263.272 67.004 263.426 67.1401 263.555C67.2761 263.683 67.4362 263.783 67.6111 263.849C67.7861 263.915 67.9724 263.945 68.1592 263.939C68.3477 263.934 68.5333 263.892 68.7055 263.815C68.8776 263.738 69.0328 263.628 69.1622 263.491C69.2915 263.354 69.3923 263.192 69.4589 263.016C69.5255 262.84 69.5564 262.652 69.5499 262.463Z" fill="#EBEBEB"/>
<path d="M101.077 262.899L101.247 261.435C101.289 261.066 101.186 260.695 100.961 260.4C100.735 260.105 100.404 259.908 100.037 259.851C99.659 259.81 99.28 259.921 98.9831 260.159C98.6862 260.397 98.4956 260.743 98.4531 261.121L98.2958 262.584C98.2511 262.953 98.3527 263.324 98.5789 263.618C98.8051 263.912 99.1378 264.105 99.5052 264.156C99.6912 264.178 99.8797 264.163 100.06 264.111C100.24 264.06 100.408 263.973 100.554 263.856C100.7 263.739 100.822 263.594 100.912 263.43C101.002 263.265 101.058 263.085 101.077 262.899Z" fill="#EBEBEB"/>
<path d="M77.071 275.791L78.4497 276.335C78.6244 276.403 78.8108 276.437 78.9984 276.433C79.186 276.429 79.3711 276.389 79.5429 276.313C79.7148 276.238 79.8701 276.13 80 275.994C80.1299 275.859 80.2319 275.699 80.3001 275.524C80.3685 275.35 80.4018 275.163 80.3982 274.976C80.3945 274.788 80.3539 274.603 80.2786 274.431C80.2034 274.259 80.095 274.104 79.9596 273.974C79.8242 273.844 79.6646 273.742 79.4898 273.674L78.1111 273.142C77.7598 273.003 77.3678 273.009 77.021 273.159C76.6741 273.308 76.4007 273.589 76.2607 273.94C76.1906 274.115 76.156 274.301 76.1588 274.49C76.1617 274.678 76.2021 274.863 76.2775 275.035C76.353 275.208 76.462 275.363 76.5983 275.493C76.7345 275.623 76.8952 275.724 77.071 275.791Z" fill="#EBEBEB"/>
<path d="M82.0289 275.927C72.9947 274.918 66.4886 266.777 67.4972 257.743C68.5057 248.708 76.647 242.202 85.6812 243.211C94.7154 244.22 101.221 252.361 100.213 261.395C99.2043 270.429 91.0631 276.935 82.0289 275.927Z" fill="#EBEBEB"/>
<path d="M90.9062 250.563C90.8631 251.356 90.5615 252.112 90.0476 252.716C89.5357 253.344 88.8626 253.82 88.1005 254.095C87.3149 254.383 86.4487 254.357 85.6818 254.022C84.953 253.7 84.3618 253.13 84.0128 252.414C84.545 252.911 85.1813 253.282 85.8753 253.502C86.2008 253.597 86.5406 253.634 86.879 253.611C87.2179 253.601 87.5528 253.535 87.8707 253.418L88.3545 253.224C88.5117 253.139 88.6689 253.067 88.814 252.97C89.1126 252.789 89.3922 252.578 89.6485 252.341C90.1827 251.839 90.6105 251.234 90.9062 250.563Z" fill="#C7C7C7"/>
<path d="M84.9205 250.854C84.912 250.297 85.0957 249.755 85.4406 249.318C85.7892 248.868 86.2592 248.529 86.7951 248.338C87.3315 248.133 87.9266 248.145 88.4546 248.37C88.9827 248.596 89.4024 249.018 89.625 249.548C89.2384 249.244 88.794 249.021 88.3189 248.894C87.8938 248.791 87.4475 248.816 87.0369 248.967C86.1195 249.308 85.3639 249.981 84.9205 250.854Z" fill="#C7C7C7"/>
<path d="M78.1099 261.46C78.259 261.983 78.2117 262.542 77.9769 263.032C77.7506 263.54 77.3697 263.963 76.8884 264.242C76.6444 264.395 76.3714 264.497 76.0864 264.541C75.8014 264.584 75.5104 264.569 75.2316 264.495C74.7024 264.365 74.2409 264.041 73.9376 263.588C74.3724 263.789 74.839 263.912 75.3162 263.951C75.7426 263.963 76.1632 263.85 76.5256 263.625C76.9084 263.405 77.2419 263.108 77.5052 262.754C77.7848 262.364 77.9898 261.925 78.1099 261.46Z" fill="#C7C7C7"/>
<path d="M74.5197 262.935C74.4448 262.761 74.4062 262.574 74.4062 262.384C74.4062 262.195 74.4448 262.008 74.5197 261.834C74.6695 261.464 74.9374 261.154 75.2816 260.951C75.4606 260.841 75.6604 260.769 75.8686 260.74C76.0767 260.711 76.2886 260.725 76.4909 260.782C76.675 260.837 76.846 260.928 76.9936 261.051C77.1412 261.173 77.2624 261.325 77.3496 261.496C77.0409 261.395 76.7188 261.342 76.3942 261.338C76.1329 261.352 75.8792 261.431 75.6565 261.568C75.1388 261.888 74.7397 262.368 74.5197 262.935Z" fill="#C7C7C7"/>
<path d="M72.6565 257.167C72.786 257.317 72.8838 257.492 72.944 257.681C73.0043 257.871 73.0258 258.07 73.0072 258.268C72.9875 258.481 72.9249 258.689 72.8231 258.878C72.7213 259.067 72.5824 259.234 72.4146 259.368C72.2466 259.502 72.0507 259.596 71.8415 259.644C71.6322 259.692 71.4148 259.693 71.2053 259.646C70.8225 259.563 70.4806 259.349 70.2378 259.041C70.5758 259.07 70.9156 259.07 71.2536 259.041C71.5279 259.036 71.7923 258.938 72.0034 258.763C72.2196 258.587 72.3863 258.358 72.4872 258.098C72.5938 257.799 72.651 257.485 72.6565 257.167Z" fill="#C7C7C7"/>
<path d="M70.4561 258.521C70.3434 258.43 70.2548 258.313 70.1978 258.181C70.1409 258.048 70.1175 257.903 70.1296 257.759C70.1354 257.599 70.1763 257.443 70.2495 257.3C70.3227 257.158 70.4262 257.034 70.5528 256.937C70.6786 256.832 70.8281 256.759 70.9883 256.726C71.1485 256.692 71.3146 256.698 71.4719 256.743C71.6097 256.779 71.7388 256.842 71.8512 256.929C71.9635 257.017 72.0567 257.126 72.125 257.251C71.8901 257.255 71.6557 257.276 71.4235 257.311C71.2693 257.335 71.1237 257.397 71.0003 257.493C70.8675 257.6 70.7566 257.731 70.6737 257.88C70.5738 258.083 70.5007 258.299 70.4561 258.521Z" fill="#C7C7C7"/>
<path d="M95.623 254.832C95.62 255.032 95.5767 255.23 95.4956 255.412C95.4146 255.595 95.2975 255.76 95.1514 255.897C94.99 256.047 94.7992 256.162 94.5911 256.235C94.3829 256.308 94.1619 256.337 93.942 256.32C93.7215 256.31 93.5062 256.249 93.3132 256.142C93.1201 256.035 92.9545 255.885 92.8294 255.703C92.6036 255.382 92.4928 254.994 92.515 254.603C92.7351 254.862 92.9779 255.1 93.2406 255.316C93.4531 255.482 93.7095 255.583 93.9783 255.606C94.2585 255.62 94.5375 255.562 94.7886 255.437C95.0975 255.282 95.3793 255.078 95.623 254.832Z" fill="#C7C7C7"/>
<path d="M93.0715 254.36C93.052 254.218 93.0659 254.072 93.1121 253.936C93.1583 253.8 93.2355 253.676 93.3376 253.574C93.4486 253.46 93.5825 253.371 93.7305 253.313C93.8786 253.254 94.0373 253.228 94.1962 253.236C94.3488 253.244 94.4977 253.286 94.6326 253.358C94.7675 253.43 94.885 253.53 94.9771 253.652C95.0692 253.774 95.1336 253.915 95.1658 254.064C95.198 254.214 95.1973 254.368 95.1637 254.518C94.946 254.348 94.7767 254.203 94.6074 254.094C94.4701 254.015 94.3176 253.965 94.1599 253.949C93.9905 253.942 93.8216 253.971 93.6641 254.034C93.4522 254.114 93.2528 254.224 93.0715 254.36Z" fill="#C7C7C7"/>
<path d="M85.1972 264.918C85.8153 265.281 86.527 265.453 87.2425 265.411C87.9581 265.37 88.6454 265.118 89.2178 264.687C89.7901 264.255 90.2219 263.664 90.4586 262.987C90.6953 262.311 90.7263 261.579 90.5477 260.885C90.3691 260.191 89.9889 259.565 89.4551 259.087C88.9213 258.609 88.2578 258.299 87.5483 258.198C86.8388 258.096 86.1152 258.207 85.4686 258.516C84.822 258.825 84.2815 259.319 83.9153 259.935C83.671 260.346 83.5103 260.802 83.4425 261.275C83.3748 261.748 83.4012 262.23 83.5203 262.693C83.6395 263.156 83.8489 263.591 84.1367 263.973C84.4245 264.355 84.7849 264.676 85.1972 264.918Z" fill="#DBDBDB"/>
<path d="M88.9362 260.262C89.3831 260.526 89.7616 260.891 90.041 261.328C90.3205 261.765 90.493 262.261 90.5446 262.778C90.7092 262.192 90.7236 261.573 90.5866 260.98C90.4495 260.387 90.1654 259.838 89.7604 259.383C89.3555 258.929 88.8426 258.584 88.2691 258.379C87.6957 258.175 87.08 258.118 86.4789 258.214C85.8778 258.311 85.3105 258.556 84.8293 258.929C84.3481 259.302 83.9684 259.79 83.7253 260.348C83.4822 260.906 83.3835 261.517 83.4382 262.123C83.4929 262.729 83.6992 263.312 84.0383 263.818C83.9099 263.199 83.9621 262.555 84.1886 261.965C84.415 261.375 84.8063 260.862 85.3158 260.487C85.8253 260.113 86.4317 259.892 87.0628 259.853C87.6938 259.813 88.3231 259.955 88.8757 260.262H88.9362Z" fill="#C7C7C7"/>
<path d="M91.9219 262.947C91.8293 263.91 91.4454 264.821 90.8213 265.559C90.1766 266.317 89.3417 266.889 88.4026 267.216C87.4547 267.591 86.3997 267.591 85.4518 267.216C84.5857 266.8 83.8835 266.106 83.4563 265.245C84.0893 265.89 84.8696 266.371 85.7299 266.648C85.9352 266.713 86.1455 266.762 86.3588 266.793C86.5718 266.817 86.7868 266.817 86.9997 266.793C87.4135 266.78 87.8222 266.698 88.2091 266.551L88.8138 266.309C89.0073 266.2 89.2008 266.116 89.3822 265.995C89.7604 265.767 90.1131 265.5 90.4343 265.197C91.0734 264.552 91.579 263.788 91.9219 262.947Z" fill="#C7C7C7"/>
<path d="M95.7805 264.761C95.9488 264.821 96.1272 264.847 96.3055 264.837C96.4839 264.828 96.6586 264.783 96.8198 264.706C96.9809 264.629 97.1253 264.522 97.2448 264.389C97.3642 264.256 97.4564 264.101 97.5159 263.933C97.5755 263.764 97.6013 263.586 97.5919 263.408C97.5825 263.229 97.5381 263.055 97.4611 262.893C97.3842 262.732 97.2763 262.588 97.1436 262.468C97.0108 262.349 96.8558 262.257 96.6875 262.197C96.3473 262.084 95.9765 262.108 95.6536 262.264C95.3308 262.42 95.0813 262.695 94.9581 263.032C94.8379 263.37 94.857 263.742 95.0113 264.067C95.1655 264.391 95.4422 264.641 95.7805 264.761Z" fill="#DBDBDB"/>
<path d="M96.7586 262.826C96.9412 262.89 97.1057 262.997 97.2383 263.138C97.3709 263.279 97.4677 263.45 97.5206 263.636C97.5509 263.336 97.4791 263.034 97.3167 262.779C97.1543 262.525 96.9108 262.333 96.6256 262.233C96.2855 262.12 95.9146 262.144 95.5918 262.3C95.2689 262.456 95.0194 262.731 94.8962 263.068C94.8107 263.31 94.796 263.572 94.8538 263.823C94.9117 264.073 95.0396 264.302 95.2228 264.483C95.1083 264.196 95.1083 263.875 95.2228 263.588C95.2732 263.437 95.3531 263.297 95.4577 263.177C95.5623 263.057 95.6896 262.959 95.8324 262.888C95.9751 262.817 96.1304 262.775 96.2893 262.764C96.4483 262.754 96.6078 262.775 96.7586 262.826Z" fill="#C7C7C7"/>
<path d="M98.1255 263.563C98.1801 263.925 98.1165 264.294 97.9441 264.616C97.7614 264.946 97.4943 265.221 97.1701 265.414C96.8369 265.617 96.4379 265.682 96.0575 265.595C95.6976 265.512 95.3799 265.301 95.1625 265.003C95.4518 265.172 95.773 265.279 96.1058 265.317C96.4156 265.338 96.724 265.262 96.9887 265.099C97.2726 264.934 97.5198 264.713 97.7152 264.448C97.9107 264.184 98.0503 263.883 98.1255 263.563Z" fill="#C7C7C7"/>
<path d="M85.5257 272.501C85.9033 272.565 86.2914 272.516 86.641 272.359C86.9905 272.203 87.2858 271.946 87.4893 271.621C87.6928 271.297 87.7955 270.92 87.7843 270.537C87.7731 270.154 87.6486 269.783 87.4265 269.471C87.2043 269.159 86.8946 268.92 86.5365 268.784C86.1784 268.648 85.788 268.622 85.4149 268.708C85.0417 268.794 84.7025 268.989 84.4402 269.268C84.1779 269.547 84.0043 269.898 83.9414 270.276C83.8982 270.526 83.9049 270.782 83.9612 271.03C84.0176 271.277 84.1225 271.511 84.2698 271.718C84.4171 271.925 84.6039 272.101 84.8195 272.235C85.035 272.37 85.2751 272.46 85.5257 272.501Z" fill="#DBDBDB"/>
<path d="M86.4919 269.465C86.763 269.511 87.0194 269.621 87.2401 269.784C87.4608 269.948 87.6395 270.162 87.7617 270.409C87.7316 269.934 87.527 269.488 87.1872 269.156C86.8474 268.823 86.3966 268.629 85.9217 268.609C85.4468 268.59 84.9816 268.747 84.6156 269.05C84.2497 269.353 84.009 269.781 83.9401 270.251C83.8799 270.613 83.9229 270.984 84.0641 271.322C84.2053 271.66 84.439 271.951 84.7383 272.162C84.5095 271.803 84.4153 271.375 84.4722 270.953C84.5046 270.721 84.583 270.499 84.7026 270.298C84.8223 270.097 84.9808 269.923 85.169 269.784C85.3571 269.645 85.5711 269.546 85.7983 269.491C86.0255 269.436 86.2613 269.428 86.4919 269.465Z" fill="#C7C7C7"/>
<path d="M88.4989 270.216C88.6302 270.71 88.6091 271.233 88.4384 271.715C88.2727 272.209 87.9759 272.648 87.5797 272.985C87.1725 273.334 86.6525 273.523 86.1164 273.517C85.5995 273.495 85.1052 273.299 84.7135 272.961C85.1481 273.164 85.6251 273.26 86.1043 273.239C86.552 273.197 86.9752 273.015 87.3137 272.719C87.6712 272.417 87.9599 272.042 88.1602 271.619C88.3708 271.18 88.4862 270.702 88.4989 270.216Z" fill="#C7C7C7"/>
<path d="M79.0411 252.982C78.683 253.543 78.1629 253.981 77.5499 254.239C76.9368 254.497 76.2598 254.562 75.6087 254.426C74.9577 254.29 74.3635 253.959 73.905 253.477C73.4465 252.995 73.1454 252.385 73.0418 251.729C72.9382 251.072 73.0369 250.399 73.3248 249.799C73.6127 249.199 74.0762 248.702 74.6537 248.372C75.2313 248.042 75.8955 247.896 76.5582 247.952C77.2209 248.009 77.8507 248.266 78.3639 248.689C79.0207 249.17 79.4604 249.892 79.5873 250.696C79.7142 251.5 79.5179 252.322 79.0411 252.982Z" fill="#DBDBDB"/>
<path d="M74.5435 250.152C74.2752 250.487 74.0967 250.884 74.0247 251.308C73.9528 251.731 73.9898 252.165 74.1323 252.57C73.6947 252.054 73.4456 251.404 73.4259 250.727C73.4061 250.05 73.6168 249.387 74.0235 248.845C74.5833 248.256 75.3523 247.911 76.1646 247.884C76.9769 247.856 77.7672 248.15 78.3651 248.7C78.8304 249.068 79.1882 249.553 79.401 250.107C79.6138 250.66 79.6737 251.26 79.5745 251.845C79.427 251.131 79.0384 250.491 78.474 250.031C77.9351 249.529 77.2199 249.26 76.4839 249.282C75.7478 249.305 75.0505 249.617 74.5435 250.152Z" fill="#C7C7C7"/>
<path d="M80.3491 250.914C80.7187 251.668 80.7752 252.537 80.5063 253.333C80.3659 253.739 80.139 254.111 79.8412 254.421C79.5563 254.747 79.2047 255.007 78.8103 255.184C78.4159 255.362 77.9879 255.452 77.5554 255.449C77.1458 255.458 76.7375 255.401 76.3461 255.28C75.5745 255.046 74.8698 254.631 74.2902 254.071C74.9908 254.361 75.7205 254.576 76.467 254.711C77.1621 254.835 77.8779 254.764 78.535 254.506C78.845 254.356 79.1304 254.161 79.3816 253.925C79.644 253.696 79.8578 253.416 80.0105 253.103C80.3185 252.417 80.4355 251.661 80.3491 250.914Z" fill="#C7C7C7"/>
<path d="M959.889 376.187L950.577 366.875C949.939 366.241 949.433 365.487 949.088 364.657C948.742 363.826 948.565 362.936 948.565 362.037C948.565 361.138 948.742 360.248 949.088 359.417C949.433 358.587 949.939 357.833 950.577 357.2C951.212 356.563 951.966 356.059 952.796 355.714C953.626 355.37 954.516 355.192 955.414 355.192C956.313 355.192 957.203 355.37 958.033 355.714C958.863 356.059 959.617 356.563 960.252 357.2L969.564 366.512C970.202 367.146 970.708 367.899 971.053 368.73C971.398 369.56 971.576 370.45 971.576 371.349C971.576 372.248 971.398 373.139 971.053 373.969C970.708 374.799 970.202 375.553 969.564 376.187C968.929 376.823 968.175 377.328 967.345 377.672C966.515 378.017 965.625 378.194 964.726 378.194C963.828 378.194 962.938 378.017 962.108 377.672C961.278 377.328 960.524 376.823 959.889 376.187Z" fill="#EBEBEB"/>
<path d="M832.687 468.498L826.773 456.73C825.962 455.112 825.825 453.238 826.394 451.519C826.964 449.8 828.192 448.377 829.809 447.563C830.61 447.16 831.483 446.918 832.377 446.852C833.272 446.787 834.171 446.898 835.022 447.18C835.874 447.462 836.661 447.909 837.339 448.496C838.018 449.082 838.574 449.797 838.976 450.599L844.89 462.366C845.293 463.167 845.535 464.04 845.601 464.934C845.667 465.829 845.555 466.728 845.273 467.579C844.991 468.431 844.544 469.218 843.958 469.897C843.371 470.575 842.656 471.131 841.854 471.533C841.053 471.937 840.18 472.178 839.286 472.244C838.391 472.31 837.493 472.199 836.641 471.917C835.79 471.635 835.002 471.188 834.324 470.601C833.645 470.014 833.089 469.299 832.687 468.498Z" fill="#EBEBEB"/>
<path d="M914.224 349.895L907.221 348.891C905.429 348.634 903.812 347.675 902.726 346.226C901.639 344.777 901.173 342.956 901.429 341.164C901.555 340.275 901.855 339.421 902.311 338.649C902.768 337.876 903.373 337.202 904.091 336.664C904.808 336.126 905.625 335.735 906.495 335.513C907.364 335.291 908.268 335.243 909.156 335.371L916.159 336.375C917.047 336.501 917.902 336.801 918.674 337.257C919.446 337.714 920.12 338.319 920.658 339.037C921.196 339.754 921.588 340.571 921.81 341.441C922.031 342.31 922.08 343.214 921.951 344.102C921.694 345.895 920.735 347.512 919.286 348.598C917.837 349.684 916.016 350.151 914.224 349.895Z" fill="#EBEBEB"/>
<path d="M969.806 442.304L970.81 435.301C970.936 434.413 971.236 433.558 971.693 432.786C972.15 432.014 972.754 431.34 973.472 430.802C974.19 430.264 975.007 429.872 975.876 429.65C976.745 429.429 977.65 429.38 978.538 429.508C979.424 429.634 980.278 429.934 981.048 430.39C981.819 430.847 982.492 431.45 983.029 432.167C983.566 432.884 983.956 433.699 984.178 434.567C984.399 435.435 984.447 436.338 984.319 437.224L983.327 444.239C983.066 446.03 982.107 447.645 980.659 448.73C979.211 449.816 977.391 450.284 975.599 450.031C973.806 449.774 972.189 448.815 971.103 447.366C970.017 445.917 969.551 444.096 969.806 442.304Z" fill="#EBEBEB"/>
<path d="M819.627 431.757V416.253C819.627 414.81 820.796 413.641 822.239 413.641H830.668C832.111 413.641 833.281 414.81 833.281 416.253V431.757C833.281 433.2 832.111 434.369 830.668 434.369H822.239C820.796 434.369 819.627 433.2 819.627 431.757Z" fill="#EBEBEB"/>
<path d="M903.243 499.821C859.735 499.821 824.465 464.551 824.465 421.043C824.465 377.535 859.735 342.265 903.243 342.265C946.751 342.265 982.021 377.535 982.021 421.043C982.021 464.551 946.751 499.821 903.243 499.821Z" fill="#EBEBEB"/>
<path d="M874.581 374.312C874.383 378.096 875.404 381.844 877.495 385.003C879.607 388.259 882.568 390.877 886.058 392.574C889.646 394.376 893.791 394.726 897.631 393.554C901.27 392.4 904.387 390.002 906.436 386.781C903.635 388.854 900.409 390.279 896.99 390.953C895.39 391.238 893.753 391.238 892.153 390.953C890.557 390.707 889.01 390.209 887.569 389.478C886.832 389.115 886.082 388.716 885.356 388.269C884.631 387.821 883.953 387.362 883.312 386.829C881.981 385.821 880.765 384.669 879.684 383.395C877.409 380.728 875.676 377.643 874.581 374.312Z" fill="#C7C7C7"/>
<path d="M902.905 378.847C903.254 376.221 902.672 373.555 901.26 371.313C899.844 368.983 897.787 367.11 895.334 365.919C894.07 365.283 892.693 364.904 891.282 364.802C889.87 364.7 888.453 364.879 887.111 365.327C884.576 366.188 882.468 367.989 881.221 370.358C883.215 369.125 885.436 368.303 887.752 367.939C889.829 367.693 891.933 368.068 893.798 369.015C897.945 371.054 901.19 374.557 902.905 378.847Z" fill="#C7C7C7"/>
<path d="M929.582 432.954C928.611 435.352 928.542 438.02 929.389 440.464C930.218 443.003 931.805 445.228 933.936 446.838C935.023 447.686 936.269 448.309 937.6 448.668C938.932 449.027 940.321 449.116 941.688 448.93C944.261 448.575 946.612 447.283 948.291 445.302C946.124 446.017 943.847 446.337 941.567 446.245C939.549 446.099 937.62 445.354 936.028 444.104C934.337 442.827 932.915 441.228 931.844 439.4C930.718 437.401 929.952 435.219 929.582 432.954Z" fill="#C7C7C7"/>
<path d="M945.897 441.892C946.332 441.092 946.603 440.214 946.694 439.309C946.785 438.403 946.695 437.489 946.429 436.619C945.904 434.778 944.791 433.16 943.26 432.011C942.476 431.391 941.57 430.944 940.601 430.698C939.632 430.452 938.622 430.413 937.637 430.584C936.733 430.74 935.871 431.077 935.102 431.576C934.333 432.075 933.673 432.725 933.162 433.487C934.675 433.191 936.224 433.121 937.758 433.281C939.006 433.463 940.186 433.967 941.18 434.744C943.493 436.545 945.15 439.057 945.897 441.892Z" fill="#C7C7C7"/>
<path d="M957.834 415.419C957.139 416.069 956.581 416.853 956.194 417.724C955.808 418.594 955.601 419.534 955.585 420.486C955.567 421.516 955.756 422.539 956.14 423.494C956.524 424.45 957.096 425.319 957.822 426.049C958.568 426.799 959.476 427.367 960.476 427.709C961.477 428.05 962.542 428.157 963.591 428.021C965.47 427.81 967.218 426.956 968.537 425.602C966.911 425.664 965.283 425.571 963.675 425.324C962.399 425.134 961.217 424.541 960.301 423.631C959.36 422.675 958.673 421.498 958.306 420.208C957.883 418.649 957.724 417.03 957.834 415.419Z" fill="#C7C7C7"/>
<path d="M967.592 423.074C968.165 422.683 968.64 422.166 968.98 421.562C969.32 420.958 969.515 420.283 969.551 419.591C969.601 418.83 969.487 418.068 969.218 417.354C968.949 416.641 968.531 415.994 967.991 415.455C967.435 414.895 966.753 414.478 966.001 414.238C965.25 413.998 964.451 413.942 963.674 414.076C963.004 414.177 962.361 414.409 961.782 414.76C961.203 415.111 960.699 415.573 960.3 416.12C961.417 416.271 962.524 416.493 963.613 416.785C964.343 416.969 965.008 417.349 965.536 417.886C966.102 418.458 966.549 419.136 966.854 419.881C967.251 420.905 967.499 421.98 967.592 423.074Z" fill="#C7C7C7"/>
<path d="M849.885 392.09C849.794 393.038 849.897 393.994 850.188 394.901C850.479 395.807 850.952 396.645 851.578 397.363C852.247 398.144 853.066 398.784 853.986 399.246C854.906 399.707 855.909 399.979 856.935 400.047C857.991 400.112 859.047 399.933 860.022 399.524C860.997 399.115 861.865 398.487 862.559 397.689C863.829 396.294 864.58 394.505 864.688 392.622C863.492 393.747 862.192 394.755 860.805 395.633C859.727 396.329 858.459 396.671 857.177 396.613C855.843 396.528 854.55 396.113 853.416 395.403C852.067 394.499 850.874 393.379 849.885 392.09Z" fill="#C7C7C7"/>
<path d="M862.269 391.329C862.437 390.655 862.446 389.953 862.297 389.275C862.148 388.597 861.845 387.963 861.41 387.422C860.941 386.823 860.351 386.33 859.678 385.976C859.004 385.621 858.263 385.414 857.504 385.367C856.718 385.311 855.93 385.448 855.209 385.767C854.489 386.085 853.856 386.574 853.368 387.193C852.924 387.709 852.589 388.309 852.381 388.957C852.173 389.605 852.098 390.288 852.158 390.966C853.093 390.326 854.071 389.752 855.085 389.249C855.751 388.9 856.501 388.745 857.25 388.801C858.052 388.849 858.837 389.055 859.56 389.406C860.549 389.915 861.462 390.562 862.269 391.329Z" fill="#C7C7C7"/>
<path d="M894.051 445.617C890.901 447.042 887.4 447.5 883.99 446.932C880.58 446.364 877.415 444.796 874.897 442.428C872.38 440.059 870.622 436.996 869.848 433.626C869.074 430.257 869.317 426.734 870.548 423.504C871.779 420.273 873.942 417.481 876.762 415.482C879.582 413.482 882.932 412.366 886.388 412.273C889.844 412.18 893.249 413.116 896.172 414.961C899.095 416.807 901.404 419.479 902.807 422.639C904.688 426.847 904.823 431.631 903.182 435.939C901.54 440.247 898.256 443.727 894.051 445.617Z" fill="#DBDBDB"/>
<path d="M878.79 421.466C876.523 422.478 874.528 424.013 872.968 425.945C871.408 427.877 870.328 430.151 869.816 432.58C869.343 429.699 869.603 426.745 870.573 423.991C871.543 421.237 873.191 418.772 875.365 416.823C877.539 414.874 880.169 413.505 883.012 412.84C885.855 412.176 888.819 412.239 891.632 413.023C894.444 413.807 897.014 415.287 899.103 417.326C901.193 419.366 902.735 421.898 903.587 424.691C904.439 427.483 904.574 430.446 903.979 433.304C903.384 436.162 902.079 438.825 900.184 441.046C901.166 438.135 901.28 435.002 900.512 432.028C899.745 429.054 898.129 426.368 895.861 424.296C893.593 422.225 890.772 420.857 887.741 420.361C884.71 419.865 881.6 420.262 878.79 421.502V421.466Z" fill="#C7C7C7"/>
<path d="M862.875 432.604C862.785 437.234 864.128 441.779 866.72 445.616C869.344 449.546 872.968 452.706 877.218 454.771C881.561 456.965 886.577 457.423 891.246 456.053C895.704 454.685 899.567 451.845 902.203 447.999C898.815 450.694 894.843 452.557 890.605 453.441C889.593 453.609 888.571 453.718 887.546 453.767C886.533 453.778 885.521 453.697 884.522 453.526C882.506 453.222 880.551 452.601 878.729 451.687C877.798 451.216 876.867 450.72 875.972 450.188C875.077 449.656 874.206 449.063 873.408 448.386C871.739 447.112 870.222 445.651 868.885 444.032C866.12 440.675 864.074 436.785 862.875 432.604Z" fill="#C7C7C7"/>
<path d="M843.802 439.231C842.546 439.531 841.23 439.451 840.02 439.001C838.81 438.552 837.76 437.753 837.004 436.706C836.249 435.659 835.821 434.412 835.775 433.122C835.729 431.831 836.068 430.557 836.748 429.459C837.427 428.361 838.417 427.49 839.593 426.956C840.768 426.422 842.076 426.249 843.349 426.459C844.623 426.669 845.806 427.252 846.748 428.135C847.69 429.018 848.348 430.161 848.64 431.419C849.032 433.096 848.743 434.86 847.836 436.325C846.929 437.789 845.479 438.834 843.802 439.231Z" fill="#DBDBDB"/>
<path d="M839.932 429.291C839.031 429.502 838.192 429.924 837.484 430.521C836.775 431.117 836.218 431.873 835.856 432.725C835.887 431.637 836.191 430.573 836.741 429.633C837.291 428.693 838.069 427.907 839.003 427.346C839.937 426.786 840.997 426.471 842.085 426.429C843.174 426.387 844.255 426.619 845.23 427.106C846.204 427.592 847.041 428.316 847.662 429.21C848.283 430.105 848.668 431.142 848.782 432.225C848.897 433.308 848.737 434.403 848.316 435.407C847.896 436.412 847.229 437.295 846.378 437.974C847.117 436.689 847.337 435.171 846.995 433.729C846.646 432.204 845.706 430.88 844.382 430.048C843.058 429.216 841.457 428.944 839.932 429.291Z" fill="#C7C7C7"/>
<path d="M833.316 432.217C832.862 433.912 832.977 435.709 833.643 437.332C834.304 439.003 835.418 440.456 836.86 441.529C838.334 442.662 840.187 443.186 842.036 442.992C843.794 442.789 845.421 441.961 846.619 440.658C845.162 441.323 843.577 441.661 841.975 441.65C840.49 441.598 839.059 441.077 837.888 440.162C836.635 439.209 835.585 438.015 834.8 436.651C834.015 435.286 833.51 433.779 833.316 432.217Z" fill="#C7C7C7"/>
<path d="M888.489 481.39C886.661 481.497 884.841 481.059 883.262 480.132C881.682 479.205 880.414 477.829 879.617 476.18C878.819 474.531 878.53 472.682 878.784 470.869C879.039 469.055 879.826 467.357 881.046 465.991C882.266 464.625 883.864 463.652 885.638 463.195C887.412 462.738 889.281 462.818 891.01 463.424C892.738 464.031 894.247 465.137 895.347 466.602C896.446 468.067 897.085 469.825 897.184 471.654C897.253 472.865 897.083 474.077 896.683 475.221C896.283 476.365 895.661 477.42 894.854 478.324C894.046 479.228 893.069 479.964 891.976 480.49C890.884 481.016 889.699 481.322 888.489 481.39Z" fill="#DBDBDB"/>
<path d="M885.514 466.538C884.198 466.608 882.918 466.988 881.779 467.648C880.639 468.308 879.673 469.229 878.959 470.336C879.267 468.818 879.953 467.402 880.954 466.219C881.955 465.036 883.237 464.125 884.683 463.569C886.129 463.013 887.692 462.831 889.227 463.039C890.763 463.247 892.221 463.838 893.466 464.759C894.712 465.68 895.706 466.9 896.356 468.306C897.005 469.713 897.29 471.26 897.183 472.806C897.076 474.351 896.582 475.845 895.745 477.149C894.908 478.453 893.756 479.524 892.395 480.265C893.748 478.648 894.431 476.576 894.306 474.472C894.25 473.373 893.978 472.297 893.506 471.303C893.034 470.31 892.371 469.42 891.554 468.683C890.737 467.946 889.784 467.377 888.747 467.009C887.711 466.641 886.612 466.481 885.514 466.538Z" fill="#C7C7C7"/>
<path d="M875.524 469.03C874.63 471.309 874.449 473.806 875.004 476.19C875.557 478.625 876.747 480.87 878.451 482.696C880.185 484.591 882.568 485.765 885.127 485.986C887.585 486.151 890.028 485.491 892.068 484.111C889.886 484.826 887.565 485.012 885.296 484.655C883.143 484.246 881.181 483.146 879.709 481.523C878.176 479.893 877.01 477.956 876.286 475.839C875.562 473.647 875.303 471.328 875.524 469.03Z" fill="#C7C7C7"/>
<path d="M929.703 392.15C933.876 398.524 943.091 399.878 950.262 395.174C957.434 390.469 959.937 381.484 955.753 375.11C951.569 368.737 942.377 367.382 935.194 372.087C928.01 376.791 925.543 385.777 929.703 392.15Z" fill="#DBDBDB"/>
<path d="M952.608 381.085C953.69 382.809 954.319 384.778 954.437 386.81C954.556 388.841 954.16 390.87 953.286 392.707C958.123 387.749 959.332 380.505 955.777 375.099C951.617 368.738 942.401 367.383 935.218 372.088C932.807 373.575 930.841 375.684 929.526 378.192C928.211 380.701 927.595 383.517 927.744 386.346C928.821 383.036 931.014 380.202 933.948 378.328C940.454 374.071 948.823 375.292 952.608 381.085Z" fill="#C7C7C7"/>
<path d="M924.624 381.629C923.553 383.271 922.818 385.11 922.463 387.039C922.108 388.968 922.14 390.948 922.556 392.864C923.012 394.862 923.9 396.736 925.157 398.354C926.403 399.993 927.93 401.398 929.667 402.503C931.468 403.513 933.441 404.181 935.485 404.474C937.461 404.721 939.463 404.664 941.423 404.305C945.21 403.642 948.786 402.092 951.859 399.781C948.364 400.798 944.766 401.419 941.132 401.632C937.775 401.878 934.417 401.156 931.457 399.552C930.046 398.693 928.788 397.606 927.732 396.335C926.628 395.089 925.763 393.65 925.181 392.09C924.042 388.719 923.85 385.101 924.624 381.629Z" fill="#C7C7C7"/>
<path d="M564.201 465.436C548.37 450.496 547.647 425.552 562.586 409.721C577.526 393.889 602.47 393.166 618.302 408.106C634.133 423.045 634.856 447.99 619.916 463.821C604.977 479.653 580.032 480.375 564.201 465.436Z" fill="#455A64"/>
<path d="M627.93 451.264C624.525 447.792 620.594 444.878 616.283 442.629C608.773 438.565 587.899 433.111 578.491 427.367C565.26 419.3 564.148 411.645 564.535 407.799C568.272 404.373 572.632 401.697 577.378 399.914C578.043 403.965 580.74 416.652 602.98 426.52C614.469 431.636 625.958 429.761 629.925 429.132C631.404 436.548 630.711 444.232 627.93 451.264Z" fill="#37474F"/>
<path d="M610.164 471.388C602.229 475.713 593.05 477.185 584.16 475.559C575.27 473.932 567.207 469.305 561.318 462.45C563.637 461.414 566.074 460.663 568.574 460.213C579.349 458.496 590.572 464.494 594.624 467.215C599.138 470.42 604.652 471.9 610.164 471.388Z" fill="#37474F"/>
<path d="M625.125 456.972L624.557 457.891L624.024 458.701C623.613 459.318 623.202 459.911 622.815 460.503C622.428 461.096 622.005 461.543 621.606 462.039L621.134 462.595L620.59 463.212C620.408 463.418 620.227 463.623 620.034 463.817L619.356 464.518L618.679 465.195L618.074 465.764C617.627 466.175 617.167 466.574 616.708 466.973C614.204 467.517 610.951 466.973 606.319 464.651C599.402 461.277 592.254 453.924 578.867 447.853C570.593 444.18 561.467 442.857 552.49 444.032C550.991 436.03 552.014 427.76 555.417 420.364C557.933 420.473 565.926 422.275 582.023 437.876C587.015 442.861 592.506 447.319 598.41 451.179C612.499 460.068 621.195 458.435 624.883 456.972H625.125Z" fill="#37474F"/>
<path d="M589.387 414.076C588.541 415.612 586.049 415.866 583.812 414.644C581.575 413.423 580.462 411.173 581.296 409.637C582.131 408.102 584.634 407.86 586.872 409.081C589.109 410.303 590.222 412.479 589.387 414.076Z" fill="#263238"/>
<path d="M578.02 415.805C577.548 416.664 576.073 416.772 574.73 416.035C573.388 415.297 572.699 414.003 573.17 413.144C573.642 412.286 575.117 412.165 576.46 412.902C577.802 413.64 578.491 414.934 578.02 415.805Z" fill="#263238"/>
<path d="M604.069 466.78C603.343 468.098 601.179 468.291 599.232 467.215C597.284 466.139 596.281 464.216 596.994 462.898C597.708 461.579 599.885 461.398 601.832 462.462C603.779 463.526 604.783 465.473 604.069 466.78Z" fill="#263238"/>
<path d="M596.716 467.481C596.623 467.883 596.406 468.246 596.096 468.518C595.786 468.79 595.398 468.958 594.988 468.999C594.577 469.039 594.164 468.949 593.807 468.742C593.45 468.536 593.167 468.222 592.998 467.846C592.829 467.469 592.782 467.05 592.864 466.645C592.946 466.241 593.152 465.872 593.455 465.592C593.757 465.311 594.14 465.132 594.549 465.081C594.959 465.029 595.374 465.108 595.737 465.304C596.148 465.472 596.48 465.791 596.662 466.197C596.845 466.602 596.864 467.062 596.716 467.481Z" fill="#263238"/>
<path d="M595.882 463.732C595.705 463.943 595.454 464.08 595.18 464.114C594.906 464.147 594.63 464.076 594.407 463.913C593.814 463.587 593.524 462.982 593.754 462.571C593.933 462.358 594.186 462.221 594.462 462.188C594.738 462.154 595.016 462.226 595.241 462.389C595.822 462.716 596.112 463.321 595.882 463.732Z" fill="#263238"/>
<path d="M571.392 461.397C570.751 462.607 568.973 462.825 567.401 461.966C565.829 461.107 565.091 459.462 565.732 458.338C566.373 457.213 568.151 456.911 569.723 457.769C571.295 458.628 572.033 460.224 571.392 461.397Z" fill="#263238"/>
<path d="M572.831 456.137C572.712 456.43 572.507 456.679 572.243 456.853C571.979 457.026 571.668 457.116 571.353 457.109C571.037 457.102 570.73 457 570.474 456.815C570.218 456.631 570.023 456.373 569.917 456.075C569.81 455.778 569.797 455.455 569.878 455.15C569.959 454.844 570.13 454.571 570.37 454.365C570.61 454.159 570.907 454.031 571.221 453.998C571.535 453.965 571.852 454.027 572.129 454.178C572.481 454.346 572.753 454.646 572.884 455.013C573.016 455.38 572.997 455.784 572.831 456.137Z" fill="#263238"/>
<path d="M622.765 460.503C598.336 455.331 574.55 447.487 551.836 437.114C534.179 428.818 523.283 420.872 524.758 416.385C526.234 411.899 539.476 411.838 558.137 415.43C557.629 416.216 557.157 417.014 556.698 417.849C556.528 418.163 556.371 418.478 556.202 418.78C546.273 417.51 539.694 418.091 538.799 420.824C537.904 423.557 543.008 428.08 552.017 433.014C563.405 438.994 575.299 443.956 587.561 447.841C599.764 451.983 612.31 455.039 625.051 456.972C635.198 458.314 641.982 457.746 642.853 454.976C643.724 452.207 638.802 447.901 630.106 443.052C630.324 441.73 630.469 440.398 630.542 439.061C648.174 447.333 659.228 455.557 657.704 460.031C656.18 464.506 642.381 464.458 622.765 460.503Z" fill="#263238"/>
<path d="M620.541 463.199C608.765 460.676 597.127 457.543 585.675 453.815C574.267 450.164 563.053 445.93 552.079 441.128C527.553 430.244 511.892 419.154 513.936 412.793C515.979 406.432 534.833 406.565 560.666 411.946C560.291 412.418 559.916 412.902 559.553 413.398C537.857 409.237 522.304 409.467 520.551 414.921C518.797 420.376 531.52 429.845 551.922 439.254C563.062 444.306 574.485 448.707 586.135 452.436C597.822 456.242 609.723 459.359 621.775 461.772C643.725 466.029 659.495 465.824 661.261 460.321C663.026 454.818 650.618 445.651 630.688 436.376C630.688 435.759 630.688 435.166 630.615 434.525C654.633 445.228 669.896 456.173 667.876 462.462C665.856 468.75 646.676 468.69 620.541 463.199Z" fill="#37474F"/>
<path d="M754.504 251.481C742.349 247.332 735.86 234.114 740.009 221.959C744.159 209.804 757.377 203.314 769.532 207.464C781.687 211.613 788.177 224.831 784.027 236.986C779.877 249.142 766.66 255.631 754.504 251.481Z" fill="#EBEBEB"/>
<path d="M739.749 236.214C741.915 234.335 744.364 232.809 747.005 231.691C751.613 229.659 764.154 227.434 769.983 224.495C778.146 220.383 779.162 215.945 779.114 213.611C777.084 211.416 774.648 209.634 771.942 208.362C771.362 210.708 769.173 218.037 755.616 222.875C748.613 225.293 741.914 223.697 739.64 223.141C738.419 227.418 738.456 231.957 739.749 236.214Z" fill="#DBDBDB"/>
<path d="M749.243 248.9C753.702 251.829 759.032 253.136 764.34 252.603C769.648 252.071 774.612 249.73 778.4 245.973C777.083 245.252 775.682 244.695 774.228 244.316C767.976 242.793 761.094 245.78 758.579 247.195C755.77 248.86 752.458 249.465 749.243 248.9Z" fill="#DBDBDB"/>
<path d="M741.151 239.709L741.442 240.265C741.526 240.447 741.623 240.604 741.72 240.773C741.929 241.16 742.147 241.535 742.373 241.898C742.578 242.225 742.796 242.539 743.014 242.853L743.268 243.204L743.57 243.555L743.872 243.942C743.985 244.087 744.106 244.232 744.235 244.377C744.364 244.522 744.485 244.668 744.598 244.813L744.937 245.175C745.179 245.442 745.42 245.695 745.674 245.949C747.114 246.397 749.061 246.203 751.891 245.079C756.123 243.422 760.671 239.431 768.822 236.504C773.848 234.743 779.261 234.396 784.471 235.501C785.732 230.867 785.521 225.956 783.866 221.448C782.391 221.387 777.602 222.064 767.419 230.482C764.243 233.166 760.803 235.52 757.151 237.508C748.432 242.067 743.401 240.713 741.296 239.661H741.151V239.709Z" fill="#DBDBDB"/>
<path d="M763.234 248.453C762.822 247.51 761.371 247.244 759.992 247.836C758.614 248.429 757.84 249.686 758.251 250.63C758.662 251.573 760.113 251.839 761.492 251.259C762.871 250.678 763.645 249.408 763.234 248.453Z" fill="#C7C7C7"/>
<path d="M756.656 246.796C756.426 246.263 755.568 246.13 754.733 246.493C753.899 246.856 753.427 247.57 753.657 248.102C753.887 248.634 754.757 248.779 755.58 248.416C756.402 248.053 756.874 247.34 756.656 246.796Z" fill="#C7C7C7"/>
<path d="M774.688 218.23C774.337 217.432 773.079 217.19 771.87 217.722C770.661 218.255 769.971 219.331 770.334 220.141C770.697 220.951 771.943 221.181 773.152 220.649C774.361 220.117 775.014 219.041 774.688 218.23Z" fill="#C7C7C7"/>
<path d="M770.406 217.433C770.266 217.21 770.045 217.051 769.789 216.99C769.534 216.929 769.264 216.971 769.039 217.106C768.792 217.182 768.583 217.349 768.455 217.574C768.327 217.799 768.289 218.064 768.35 218.315C768.522 218.484 768.74 218.598 768.977 218.641C769.214 218.685 769.459 218.657 769.68 218.561C769.9 218.465 770.088 218.305 770.217 218.102C770.346 217.899 770.412 217.661 770.406 217.421V217.433Z" fill="#C7C7C7"/>
<path d="M769.716 219.585C769.622 219.451 769.482 219.358 769.322 219.324C769.163 219.291 768.996 219.319 768.857 219.404C768.494 219.561 768.301 219.9 768.41 220.153C768.499 220.292 768.639 220.389 768.799 220.425C768.96 220.462 769.128 220.433 769.268 220.347C769.426 220.302 769.561 220.197 769.644 220.055C769.727 219.914 769.753 219.745 769.716 219.585Z" fill="#C7C7C7"/>
<path d="M755.204 219.646C755.154 219.233 754.976 218.847 754.696 218.541C754.415 218.235 754.045 218.024 753.638 217.94C753.231 217.855 752.808 217.901 752.429 218.069C752.049 218.238 751.732 218.522 751.522 218.881C751.312 219.239 751.221 219.655 751.26 220.068C751.299 220.482 751.467 220.873 751.74 221.186C752.013 221.499 752.377 221.718 752.782 221.813C753.186 221.908 753.61 221.873 753.994 221.714C754.425 221.595 754.793 221.312 755.019 220.926C755.245 220.539 755.311 220.08 755.204 219.646Z" fill="#C7C7C7"/>
<path d="M755.761 222.814C755.655 222.604 755.473 222.442 755.251 222.362C755.03 222.282 754.786 222.29 754.57 222.385C754.354 222.48 754.183 222.654 754.092 222.871C754.001 223.088 753.996 223.332 754.08 223.552C754.186 223.762 754.368 223.924 754.59 224.004C754.811 224.084 755.055 224.076 755.271 223.981C755.486 223.887 755.657 223.713 755.749 223.496C755.84 223.278 755.844 223.035 755.761 222.814Z" fill="#C7C7C7"/>
<path d="M916.634 89.3356C904.71 84.5616 898.914 71.0253 903.688 59.1015C908.462 47.1777 921.998 41.3817 933.922 46.1557C945.846 50.9297 951.642 64.466 946.868 76.3898C942.094 88.3136 928.557 94.1096 916.634 89.3356Z" fill="#FFC727"/>
<path opacity="0.1" d="M916.634 89.3356C904.71 84.5616 898.914 71.0253 903.688 59.1015C908.462 47.1777 921.998 41.3817 933.922 46.1557C945.846 50.9297 951.642 64.466 946.868 76.3898C942.094 88.3136 928.557 94.1096 916.634 89.3356Z" fill="black"/>
<g opacity="0.1">
<path opacity="0.1" d="M903.013 74.5086C905.181 72.6317 907.629 71.1055 910.269 69.9856C914.889 67.9538 927.394 65.777 933.235 62.8019C941.398 58.678 942.414 54.2396 942.366 51.9176C940.334 49.7193 937.894 47.9367 935.182 46.6689C934.601 49.0151 932.425 56.3439 918.868 61.1814C911.865 63.6001 905.165 61.9916 902.892 61.4353C901.674 65.7141 901.716 70.2531 903.013 74.5086Z" fill="black"/>
<path opacity="0.1" d="M912.52 87.1951C916.982 90.118 922.312 91.4208 927.619 90.8859C932.926 90.351 937.889 88.0108 941.678 84.2564C940.359 83.5368 938.958 82.9804 937.505 82.5996C931.253 81.0758 924.36 84.075 921.784 85.4778C918.998 87.1333 915.714 87.7421 912.52 87.1951Z" fill="black"/>
<path opacity="0.1" d="M904.416 78.0034C904.503 78.1977 904.6 78.3874 904.707 78.5718C904.791 78.7412 904.876 78.9105 904.973 79.0798C905.19 79.4547 905.408 79.8296 905.638 80.1924C905.868 80.5552 906.049 80.8455 906.279 81.1599L906.533 81.4985C906.623 81.6325 906.719 81.7617 906.823 81.8855L907.113 82.2725L907.476 82.72L907.851 83.1432L908.177 83.5182C908.419 83.7842 908.673 84.0382 908.927 84.2801C910.378 84.7154 912.313 84.5219 915.155 83.4093C919.376 81.7525 923.935 77.7616 932.087 74.8228C937.11 73.0683 942.517 72.7212 947.724 73.819C948.996 69.1753 948.789 64.2503 947.131 59.7299C945.644 59.6694 940.867 60.3467 930.672 68.7639C927.503 71.4575 924.062 73.8125 920.404 75.7903C911.672 80.4101 906.654 79.0798 904.549 77.9913H904.416V78.0034Z" fill="black"/>
</g>
<g opacity="0.1">
<path opacity="0.1" d="M926.511 86.7598C926.1 85.8044 924.648 85.5505 923.27 86.131C921.891 86.7115 921.105 87.9813 921.516 88.9246C921.927 89.8679 923.391 90.134 924.757 89.5535C926.124 88.973 926.922 87.7032 926.511 86.7598Z" fill="black"/>
<path opacity="0.1" d="M919.92 85.127C919.69 84.5949 918.831 84.4498 918.009 84.8126C917.187 85.1754 916.703 85.901 916.933 86.4331C917.163 86.9652 918.021 87.0983 918.856 86.7475C919.69 86.3968 920.138 85.6349 919.92 85.127Z" fill="black"/>
<path opacity="0.1" d="M937.964 56.5373C937.613 55.727 936.355 55.4972 935.146 56.0173C933.936 56.5373 933.247 57.6257 933.598 58.436C933.948 59.2463 935.218 59.4761 936.428 58.9439C937.637 58.4118 938.278 57.3113 937.964 56.5373Z" fill="black"/>
<path opacity="0.1" d="M933.681 55.7272C933.54 55.5071 933.318 55.3504 933.064 55.2895C932.809 55.2287 932.541 55.2685 932.315 55.4006C932.18 55.4193 932.051 55.4689 931.939 55.5456C931.826 55.6223 931.733 55.724 931.666 55.8427C931.599 55.9614 931.561 56.094 931.554 56.23C931.547 56.366 931.572 56.5018 931.626 56.6267C931.68 56.7516 931.763 56.8623 931.867 56.9501C931.971 57.0378 932.094 57.1004 932.226 57.1327C932.358 57.1651 932.496 57.1664 932.629 57.1365C932.762 57.1067 932.886 57.0465 932.992 56.9607C933.243 56.8822 933.454 56.7106 933.582 56.4812C933.71 56.2517 933.746 55.9819 933.681 55.7272Z" fill="black"/>
<path opacity="0.1" d="M932.992 57.8915C932.901 57.7557 932.761 57.6601 932.601 57.6241C932.442 57.5881 932.274 57.6146 932.134 57.698C931.771 57.8673 931.565 58.1939 931.674 58.4599C931.769 58.5914 931.91 58.6828 932.068 58.7164C932.227 58.7499 932.393 58.7231 932.533 58.6413C932.896 58.5204 933.101 58.1455 932.992 57.8915Z" fill="black"/>
<path opacity="0.1" d="M918.468 57.9397C918.415 57.5316 918.235 57.1504 917.954 56.8496C917.674 56.5488 917.306 56.3434 916.902 56.2623C916.499 56.1812 916.08 56.2284 915.705 56.3973C915.329 56.5662 915.016 56.8483 914.809 57.2041C914.603 57.5599 914.512 57.9715 914.551 58.3812C914.59 58.7909 914.756 59.1782 915.026 59.4887C915.296 59.7992 915.657 60.0174 916.057 60.1127C916.458 60.2079 916.878 60.1754 917.259 60.0198C917.693 59.9007 918.063 59.616 918.289 59.227C918.515 58.838 918.579 58.3758 918.468 57.9397Z" fill="black"/>
<path opacity="0.1" d="M919.036 61.1092C918.931 60.8987 918.748 60.7369 918.527 60.657C918.305 60.5771 918.061 60.5854 917.845 60.68C917.63 60.7747 917.459 60.9485 917.367 61.1656C917.276 61.3828 917.272 61.6266 917.355 61.8469C917.461 62.0574 917.643 62.2193 917.865 62.2991C918.086 62.379 918.33 62.3707 918.546 62.2761C918.762 62.1815 918.933 62.0076 919.024 61.7905C919.115 61.5734 919.12 61.3295 919.036 61.1092Z" fill="black"/>
</g>
<path d="M38.365 431.798C45.2189 424.631 44.9649 413.264 37.7977 406.41C30.6305 399.556 19.2641 399.81 12.4101 406.978C5.5562 414.145 5.81019 425.511 12.9774 432.365C20.1446 439.219 31.511 438.965 38.365 431.798Z" fill="#8CCCE5"/>
<path d="M31.2432 412.525C31.2581 411.947 31.4439 411.387 31.7771 410.914C32.1104 410.442 32.576 410.079 33.1154 409.871C33.6548 409.663 34.2437 409.619 34.8079 409.746C35.372 409.872 35.886 410.163 36.2851 410.581C36.6842 410.999 36.9505 411.526 37.0503 412.096C37.1501 412.665 37.0789 413.251 36.8459 413.78C36.6128 414.309 36.2283 414.758 35.7408 415.068C35.2532 415.379 34.6846 415.538 34.1066 415.526C33.7213 415.518 33.3413 415.434 32.9886 415.279C32.6359 415.123 32.3173 414.9 32.0512 414.621C31.7852 414.342 31.5768 414.013 31.4381 413.654C31.2995 413.294 31.2332 412.91 31.2432 412.525Z" fill="#263238"/>
<path d="M37.0959 419.365C37.101 419.025 37.207 418.695 37.4006 418.415C37.5941 418.136 37.8663 417.92 38.1827 417.796C38.499 417.672 38.8451 417.645 39.177 417.718C39.5089 417.791 39.8116 417.961 40.0466 418.207C40.2815 418.452 40.4381 418.762 40.4964 419.097C40.5548 419.432 40.5122 419.776 40.3742 420.087C40.2362 420.397 40.0089 420.66 39.7212 420.841C39.4336 421.022 39.0987 421.113 38.759 421.103C38.309 421.09 37.8822 420.9 37.571 420.575C37.2598 420.25 37.0891 419.815 37.0959 419.365Z" fill="#263238"/>
<path d="M34.8199 424.592C34.9643 424.621 35.0942 424.699 35.1876 424.813C35.2809 424.927 35.3319 425.07 35.3319 425.217C35.3319 425.364 35.2809 425.507 35.1876 425.621C35.0942 425.735 34.9643 425.813 34.8199 425.842C34.6529 425.836 34.4952 425.764 34.3806 425.642C34.266 425.521 34.2038 425.359 34.2072 425.192C34.2191 425.035 34.2878 424.887 34.4005 424.777C34.5133 424.666 34.6623 424.6 34.8199 424.592Z" fill="#263238"/>
<path d="M564.203 465.436C548.372 450.496 547.649 425.552 562.588 409.721C577.528 393.889 602.472 393.166 618.304 408.106C634.135 423.045 634.858 447.99 619.918 463.821C604.979 479.653 580.034 480.375 564.203 465.436Z" fill="#455A64"/>
<path d="M627.931 451.264C624.526 447.792 620.596 444.878 616.285 442.629C608.775 438.565 587.901 433.111 578.493 427.367C565.262 419.3 564.149 411.645 564.536 407.799C568.274 404.373 572.634 401.697 577.38 399.914C578.045 403.965 580.742 416.652 602.982 426.52C614.471 431.636 625.96 429.761 629.927 429.132C631.406 436.548 630.713 444.232 627.931 451.264Z" fill="#37474F"/>
<path d="M610.166 471.388C602.231 475.713 593.052 477.185 584.162 475.559C575.272 473.932 567.209 469.305 561.32 462.45C563.639 461.414 566.076 460.663 568.576 460.213C579.351 458.496 590.574 464.494 594.626 467.215C599.14 470.42 604.654 471.9 610.166 471.388Z" fill="#37474F"/>
<path d="M625.127 456.972L624.559 457.891L624.026 458.701C623.615 459.318 623.204 459.911 622.817 460.503C622.43 461.096 622.007 461.543 621.608 462.039L621.136 462.595L620.592 463.212C620.41 463.418 620.229 463.623 620.036 463.817L619.358 464.518L618.681 465.195L618.076 465.764C617.629 466.175 617.169 466.574 616.71 466.973C614.206 467.517 610.953 466.973 606.321 464.651C599.404 461.277 592.256 453.924 578.869 447.853C570.595 444.18 561.469 442.857 552.492 444.032C550.993 436.03 552.016 427.76 555.419 420.364C557.935 420.473 565.928 422.275 582.025 437.876C587.017 442.861 592.508 447.319 598.412 451.179C612.501 460.068 621.196 458.435 624.885 456.972H625.127Z" fill="#37474F"/>
<path d="M589.389 414.076C588.543 415.612 586.051 415.866 583.814 414.644C581.577 413.423 580.464 411.173 581.298 409.637C582.133 408.102 584.636 407.86 586.874 409.081C589.111 410.303 590.224 412.479 589.389 414.076Z" fill="#263238"/>
<path d="M578.022 415.805C577.55 416.664 576.075 416.772 574.732 416.035C573.39 415.297 572.7 414.003 573.172 413.144C573.644 412.286 575.119 412.165 576.462 412.902C577.804 413.64 578.493 414.934 578.022 415.805Z" fill="#263238"/>
<path d="M604.071 466.78C603.345 468.098 601.181 468.291 599.233 467.215C597.286 466.139 596.283 464.216 596.996 462.898C597.71 461.579 599.887 461.398 601.834 462.462C603.781 463.526 604.784 465.473 604.071 466.78Z" fill="#263238"/>
<path d="M596.718 467.481C596.625 467.883 596.408 468.246 596.098 468.518C595.788 468.79 595.4 468.958 594.99 468.999C594.579 469.039 594.166 468.949 593.809 468.742C593.452 468.536 593.169 468.222 593 467.846C592.831 467.469 592.784 467.05 592.866 466.645C592.948 466.241 593.154 465.872 593.457 465.592C593.759 465.311 594.142 465.132 594.551 465.081C594.961 465.029 595.376 465.108 595.738 465.304C596.15 465.472 596.482 465.791 596.664 466.197C596.846 466.602 596.866 467.062 596.718 467.481Z" fill="#263238"/>
<path d="M595.884 463.732C595.707 463.943 595.456 464.08 595.182 464.114C594.908 464.147 594.632 464.076 594.409 463.913C593.816 463.587 593.526 462.982 593.756 462.571C593.935 462.358 594.188 462.221 594.464 462.188C594.74 462.154 595.018 462.226 595.243 462.389C595.824 462.716 596.114 463.321 595.884 463.732Z" fill="#263238"/>
<path d="M571.394 461.397C570.753 462.607 568.975 462.825 567.403 461.966C565.831 461.107 565.093 459.462 565.734 458.338C566.375 457.213 568.153 456.911 569.725 457.769C571.297 458.628 572.035 460.224 571.394 461.397Z" fill="#263238"/>
<path d="M572.833 456.137C572.714 456.43 572.509 456.679 572.245 456.853C571.981 457.026 571.67 457.116 571.355 457.109C571.039 457.102 570.732 457 570.476 456.815C570.22 456.631 570.025 456.373 569.919 456.075C569.812 455.778 569.799 455.455 569.88 455.15C569.961 454.844 570.132 454.571 570.372 454.365C570.612 454.159 570.909 454.031 571.223 453.998C571.537 453.965 571.854 454.027 572.131 454.178C572.483 454.346 572.755 454.646 572.886 455.013C573.018 455.38 572.999 455.784 572.833 456.137Z" fill="#263238"/>
<path d="M622.767 460.503C598.338 455.331 574.552 447.487 551.838 437.114C534.181 428.818 523.285 420.872 524.76 416.385C526.236 411.899 539.478 411.838 558.139 415.43C557.631 416.216 557.159 417.014 556.7 417.849C556.53 418.163 556.373 418.478 556.204 418.78C546.275 417.51 539.696 418.091 538.801 420.824C537.906 423.557 543.009 428.08 552.019 433.014C563.407 438.994 575.301 443.956 587.563 447.841C599.766 451.983 612.312 455.039 625.053 456.972C635.2 458.314 641.984 457.746 642.855 454.976C643.726 452.207 638.803 447.901 630.108 443.052C630.325 441.73 630.471 440.398 630.544 439.061C648.176 447.333 659.23 455.557 657.706 460.031C656.182 464.506 642.383 464.458 622.767 460.503Z" fill="#263238"/>
<path d="M620.543 463.199C608.767 460.676 597.129 457.543 585.677 453.815C574.269 450.164 563.055 445.93 552.081 441.128C527.555 430.244 511.894 419.154 513.938 412.793C515.981 406.432 534.835 406.565 560.668 411.946C560.293 412.418 559.918 412.902 559.555 413.398C537.859 409.237 522.306 409.467 520.553 414.921C518.799 420.376 531.522 429.845 551.924 439.254C563.063 444.306 574.487 448.707 586.137 452.436C597.824 456.242 609.725 459.359 621.777 461.772C643.727 466.029 659.497 465.824 661.263 460.321C663.028 454.818 650.62 445.651 630.69 436.376C630.69 435.759 630.69 435.166 630.617 434.525C654.635 445.228 669.898 456.173 667.878 462.462C665.858 468.75 646.678 468.69 620.543 463.199Z" fill="#37474F"/>
<path d="M754.506 251.481C742.351 247.332 735.862 234.114 740.011 221.959C744.161 209.804 757.379 203.314 769.534 207.464C781.689 211.613 788.179 224.831 784.029 236.986C779.879 249.142 766.662 255.631 754.506 251.481Z" fill="#EBEBEB"/>
<path d="M739.751 236.214C741.917 234.335 744.366 232.809 747.007 231.691C751.615 229.659 764.156 227.434 769.985 224.495C778.148 220.383 779.164 215.945 779.116 213.611C777.086 211.416 774.65 209.634 771.944 208.362C771.364 210.708 769.175 218.037 755.618 222.875C748.615 225.293 741.915 223.697 739.642 223.141C738.42 227.418 738.458 231.957 739.751 236.214Z" fill="#DBDBDB"/>
<path d="M749.245 248.9C753.704 251.829 759.034 253.136 764.342 252.603C769.65 252.071 774.614 249.73 778.402 245.973C777.085 245.252 775.684 244.695 774.23 244.316C767.978 242.793 761.096 245.78 758.581 247.195C755.772 248.86 752.46 249.465 749.245 248.9Z" fill="#DBDBDB"/>
<path d="M741.153 239.709L741.444 240.265C741.528 240.447 741.625 240.604 741.722 240.773C741.931 241.16 742.149 241.535 742.375 241.898C742.58 242.225 742.798 242.539 743.016 242.853L743.27 243.204L743.572 243.555L743.874 243.942C743.987 244.087 744.108 244.232 744.237 244.377C744.366 244.522 744.487 244.668 744.6 244.813L744.939 245.175C745.18 245.442 745.422 245.695 745.676 245.949C747.115 246.397 749.063 246.203 751.892 245.079C756.125 243.422 760.672 239.431 768.824 236.504C773.85 234.743 779.263 234.396 784.473 235.501C785.734 230.867 785.523 225.956 783.868 221.448C782.393 221.387 777.604 222.064 767.421 230.482C764.245 233.166 760.805 235.52 757.153 237.508C748.434 242.067 743.403 240.713 741.298 239.661H741.153V239.709Z" fill="#DBDBDB"/>
<path d="M763.235 248.453C762.824 247.51 761.373 247.244 759.994 247.836C758.616 248.429 757.842 249.686 758.253 250.63C758.664 251.573 760.115 251.839 761.494 251.259C762.873 250.678 763.647 249.408 763.235 248.453Z" fill="#C7C7C7"/>
<path d="M756.658 246.796C756.428 246.263 755.57 246.13 754.735 246.493C753.901 246.856 753.429 247.57 753.659 248.102C753.889 248.634 754.759 248.779 755.582 248.416C756.404 248.053 756.876 247.34 756.658 246.796Z" fill="#C7C7C7"/>
<path d="M774.69 218.23C774.339 217.432 773.081 217.19 771.872 217.722C770.663 218.255 769.973 219.331 770.336 220.141C770.699 220.951 771.944 221.181 773.154 220.649C774.363 220.117 775.016 219.041 774.69 218.23Z" fill="#C7C7C7"/>
<path d="M770.408 217.433C770.268 217.21 770.047 217.051 769.791 216.99C769.536 216.929 769.266 216.971 769.041 217.106C768.794 217.182 768.585 217.349 768.457 217.574C768.329 217.799 768.291 218.064 768.352 218.315C768.524 218.484 768.742 218.598 768.979 218.641C769.216 218.685 769.461 218.657 769.682 218.561C769.902 218.465 770.09 218.305 770.219 218.102C770.348 217.899 770.414 217.661 770.408 217.421V217.433Z" fill="#C7C7C7"/>
<path d="M769.718 219.585C769.624 219.451 769.484 219.358 769.324 219.324C769.165 219.291 768.998 219.319 768.859 219.404C768.496 219.561 768.303 219.9 768.411 220.153C768.501 220.292 768.641 220.389 768.801 220.425C768.962 220.462 769.13 220.433 769.27 220.347C769.428 220.302 769.563 220.197 769.646 220.055C769.729 219.914 769.755 219.745 769.718 219.585Z" fill="#C7C7C7"/>
<path d="M755.206 219.646C755.156 219.233 754.978 218.847 754.697 218.541C754.417 218.235 754.047 218.024 753.64 217.94C753.233 217.855 752.81 217.901 752.431 218.069C752.051 218.238 751.734 218.522 751.524 218.881C751.314 219.239 751.223 219.655 751.262 220.068C751.301 220.482 751.469 220.873 751.742 221.186C752.015 221.499 752.379 221.718 752.784 221.813C753.188 221.908 753.612 221.873 753.996 221.714C754.427 221.595 754.795 221.312 755.021 220.926C755.247 220.539 755.313 220.08 755.206 219.646Z" fill="#C7C7C7"/>
<path d="M755.763 222.814C755.657 222.604 755.475 222.442 755.253 222.362C755.032 222.282 754.788 222.29 754.572 222.385C754.356 222.48 754.185 222.654 754.094 222.871C754.003 223.088 753.998 223.332 754.082 223.552C754.187 223.762 754.37 223.924 754.591 224.004C754.813 224.084 755.057 224.076 755.273 223.981C755.488 223.887 755.659 223.713 755.751 223.496C755.842 223.278 755.846 223.035 755.763 222.814Z" fill="#C7C7C7"/>
<path d="M916.635 89.3356C904.712 84.5616 898.916 71.0253 903.69 59.1015C908.464 47.1777 922 41.3817 933.924 46.1557C945.848 50.9297 951.644 64.466 946.87 76.3898C942.096 88.3136 928.559 94.1096 916.635 89.3356Z" fill="#FFC727"/>
<path opacity="0.1" d="M916.635 89.3356C904.712 84.5616 898.916 71.0253 903.69 59.1015C908.464 47.1777 922 41.3817 933.924 46.1557C945.848 50.9297 951.644 64.466 946.87 76.3898C942.096 88.3136 928.559 94.1096 916.635 89.3356Z" fill="black"/>
<g opacity="0.1">
<path opacity="0.1" d="M903.015 74.5086C905.183 72.6317 907.631 71.1055 910.271 69.9856C914.891 67.9538 927.396 65.777 933.237 62.8019C941.4 58.678 942.416 54.2396 942.368 51.9176C940.336 49.7193 937.896 47.9367 935.184 46.6689C934.603 49.0151 932.427 56.3439 918.87 61.1814C911.867 63.6001 905.167 61.9916 902.894 61.4353C901.676 65.7141 901.718 70.2531 903.015 74.5086Z" fill="black"/>
<path opacity="0.1" d="M912.522 87.1951C916.984 90.118 922.314 91.4208 927.621 90.8859C932.928 90.351 937.891 88.0108 941.68 84.2564C940.361 83.5368 938.96 82.9804 937.507 82.5996C931.255 81.0758 924.362 84.075 921.786 85.4778C919 87.1333 915.716 87.7421 912.522 87.1951Z" fill="black"/>
<path opacity="0.1" d="M904.418 78.0034C904.505 78.1977 904.602 78.3874 904.708 78.5718C904.793 78.7412 904.878 78.9105 904.975 79.0798C905.192 79.4547 905.41 79.8296 905.64 80.1924C905.869 80.5552 906.051 80.8455 906.281 81.1599L906.535 81.4985C906.625 81.6325 906.721 81.7617 906.825 81.8855L907.115 82.2725L907.478 82.72L907.853 83.1432L908.179 83.5182C908.421 83.7842 908.675 84.0382 908.929 84.2801C910.38 84.7154 912.315 84.5219 915.157 83.4093C919.378 81.7525 923.937 77.7616 932.089 74.8228C937.112 73.0683 942.519 72.7212 947.726 73.819C948.998 69.1753 948.791 64.2503 947.133 59.7299C945.646 59.6694 940.869 60.3467 930.674 68.7639C927.505 71.4575 924.064 73.8125 920.406 75.7903C911.674 80.4101 906.656 79.0798 904.551 77.9913H904.418V78.0034Z" fill="black"/>
</g>
<g opacity="0.1">
<path opacity="0.1" d="M926.513 86.7598C926.102 85.8044 924.65 85.5505 923.272 86.131C921.893 86.7115 921.107 87.9813 921.518 88.9246C921.929 89.8679 923.393 90.134 924.759 89.5535C926.126 88.973 926.924 87.7032 926.513 86.7598Z" fill="black"/>
<path opacity="0.1" d="M919.922 85.127C919.692 84.5949 918.833 84.4498 918.011 84.8126C917.189 85.1754 916.705 85.901 916.935 86.4331C917.164 86.9652 918.023 87.0983 918.858 86.7475C919.692 86.3968 920.14 85.6349 919.922 85.127Z" fill="black"/>
<path opacity="0.1" d="M937.965 56.5373C937.615 55.727 936.357 55.4972 935.148 56.0173C933.938 56.5373 933.249 57.6257 933.6 58.436C933.95 59.2463 935.22 59.4761 936.43 58.9439C937.639 58.4118 938.28 57.3113 937.965 56.5373Z" fill="black"/>
<path opacity="0.1" d="M933.683 55.7272C933.541 55.5071 933.32 55.3504 933.066 55.2895C932.811 55.2287 932.543 55.2685 932.317 55.4006C932.182 55.4193 932.053 55.4689 931.941 55.5456C931.828 55.6223 931.735 55.724 931.668 55.8427C931.601 55.9614 931.563 56.094 931.556 56.23C931.549 56.366 931.574 56.5018 931.628 56.6267C931.682 56.7516 931.765 56.8623 931.869 56.9501C931.973 57.0378 932.096 57.1004 932.228 57.1327C932.36 57.1651 932.498 57.1664 932.631 57.1365C932.764 57.1067 932.888 57.0465 932.994 56.9607C933.245 56.8822 933.456 56.7106 933.584 56.4812C933.712 56.2517 933.748 55.9819 933.683 55.7272Z" fill="black"/>
<path opacity="0.1" d="M932.994 57.8915C932.903 57.7557 932.763 57.6601 932.603 57.6241C932.444 57.5881 932.276 57.6146 932.136 57.698C931.773 57.8673 931.567 58.1939 931.676 58.4599C931.771 58.5914 931.912 58.6828 932.07 58.7164C932.229 58.7499 932.395 58.7231 932.535 58.6413C932.898 58.5204 933.103 58.1455 932.994 57.8915Z" fill="black"/>
<path opacity="0.1" d="M918.47 57.9397C918.417 57.5316 918.237 57.1504 917.956 56.8496C917.676 56.5488 917.308 56.3434 916.904 56.2623C916.501 56.1812 916.082 56.2284 915.707 56.3973C915.331 56.5662 915.018 56.8483 914.811 57.2041C914.605 57.5599 914.514 57.9715 914.553 58.3812C914.592 58.7909 914.758 59.1782 915.028 59.4887C915.298 59.7992 915.659 60.0174 916.059 60.1127C916.46 60.2079 916.88 60.1754 917.261 60.0198C917.695 59.9007 918.065 59.616 918.291 59.227C918.517 58.838 918.581 58.3758 918.47 57.9397Z" fill="black"/>
<path opacity="0.1" d="M919.038 61.1092C918.932 60.8987 918.75 60.7369 918.528 60.657C918.307 60.5771 918.063 60.5854 917.847 60.68C917.632 60.7747 917.461 60.9485 917.369 61.1656C917.278 61.3828 917.274 61.6266 917.357 61.8469C917.463 62.0574 917.645 62.2193 917.867 62.2991C918.088 62.379 918.332 62.3707 918.548 62.2761C918.764 62.1815 918.935 62.0076 919.026 61.7905C919.117 61.5734 919.122 61.3295 919.038 61.1092Z" fill="black"/>
</g>

</svg>
