<svg width="336" height="439" viewBox="0 0 336 439" fill="none" xmlns="http://www.w3.org/2000/svg">
<path d="M187.308 77.7494C188.167 76.7214 237.92 53.6467 282.981 88.029C324.402 119.642 338.781 179.058 333.278 180.485C326.542 182.227 308.087 153.879 272.665 138.29C260.1 132.764 240.109 138.29 240.109 138.29L187.308 77.7494Z" fill="#3D405B"/>
<path opacity="0.1" d="M240.084 138.279C246.016 136.77 252.104 135.958 258.225 135.86C250.412 119.509 235.827 89.0091 226.358 69.248C204.069 69.4536 187.743 77.1815 187.247 77.7136L240.084 138.279Z" fill="black"/>
<path d="M105.349 174.415C104.478 175.431 89.8448 228.292 131.145 267.113C169.107 302.814 230.071 307.276 230.579 301.616C231.196 294.687 200.2 281.117 179.036 248.719C171.538 237.23 173.702 216.598 173.702 216.598L105.349 174.415Z" fill="#3D405B"/>
<path opacity="0.1" d="M103.426 214.663L174.367 235.307C173.419 229.117 173.212 222.836 173.75 216.598L105.397 174.415C104.853 174.996 99.7976 192.519 103.426 214.663Z" fill="black"/>
<path d="M221.183 239.032L269.775 181.72C269.775 181.72 244.379 113.765 184.201 68.1239C154.124 45.3515 118.895 28.3115 87.2456 17.0402C43.6479 1.41521 7.1734 -3.08364 1.52563 3.5437C-4.1221 10.171 6.36313 45.4604 28.8332 85.9379C45.1475 115.217 67.7385 147.241 95.1186 173.194C150 225.148 221.183 239.032 221.183 239.032Z" fill="#C7C7C7"/>
<path d="M103.137 148.656C109.673 154.203 117.707 157.686 126.223 158.666C134.739 159.646 143.355 158.078 150.98 154.16C158.604 150.243 164.896 144.151 169.058 136.657C173.22 129.163 175.066 120.603 174.361 112.059C173.657 103.516 170.435 95.3732 165.102 88.6616C159.769 81.9501 152.565 76.9711 144.402 74.3547C136.238 71.7383 127.482 71.602 119.241 73.9631C111.001 76.3242 103.645 81.0765 98.106 87.6188C90.6888 96.3841 87.0527 107.734 87.996 119.178C88.9392 130.621 94.3847 141.223 103.137 148.656Z" fill="#A6A6A6"/>
<path d="M100.766 144.628C107.303 150.17 115.337 153.649 123.851 154.625C132.366 155.602 140.979 154.031 148.6 150.112C156.222 146.194 162.511 140.103 166.671 132.61C170.831 125.118 172.676 116.56 171.973 108.018C171.269 99.4771 168.049 91.3362 162.718 84.6253C157.388 77.9144 150.187 72.9348 142.027 70.3163C133.867 67.6978 125.113 67.5579 116.873 69.9143C108.633 72.2707 101.277 77.0176 95.7353 83.5548C88.3067 92.322 84.6637 103.68 85.6071 115.133C86.5505 126.585 92.0031 137.194 100.766 144.628Z" fill="#3D405B"/>
<path d="M109.34 134.482C113.87 138.333 119.44 140.754 125.347 141.439C131.253 142.123 137.23 141.041 142.52 138.327C147.811 135.614 152.178 131.393 155.069 126.197C157.959 121.001 159.244 115.064 158.76 109.138C158.275 103.212 156.044 97.5631 152.348 92.9055C148.652 88.2479 143.658 84.7912 137.997 82.9729C132.336 81.1547 126.263 81.0565 120.546 82.6907C114.829 84.325 109.726 87.6184 105.881 92.1541C100.733 98.2282 98.2051 106.097 98.8536 114.034C99.5021 121.97 103.274 129.324 109.34 134.482Z" fill="white"/>
<path d="M109.328 134.481C112.164 136.896 115.424 138.762 118.942 139.984L143.13 138.013C146.403 136.238 149.315 133.868 151.716 131.022C153.479 128.957 154.949 126.657 156.082 124.189L103.958 128.434C105.463 130.686 107.27 132.721 109.328 134.481Z" fill="#EBEBEB"/>
<path d="M103.282 95.697L151.391 91.7786C150.422 90.6651 149.371 89.6261 148.246 88.6706C142.173 83.5189 134.303 80.9894 126.366 81.638C118.429 82.2865 111.074 86.0601 105.918 92.1293C104.95 93.2499 104.069 94.4425 103.282 95.697Z" fill="#EBEBEB"/>
<path d="M100.669 122.206L158.235 117.502C158.426 116.62 158.567 115.727 158.658 114.829L99.8346 119.667C100.064 120.489 100.355 121.348 100.669 122.206Z" fill="#EBEBEB"/>
<path d="M28.8337 85.9379L87.2461 17.0039C43.6484 1.41519 7.17389 -3.08365 1.52615 3.54368C-4.1216 10.171 6.31525 45.4603 28.8337 85.9379Z" fill="#3D405B"/>
<path d="M70.0729 22.8573C70.4536 23.1819 70.9221 23.3862 71.4191 23.4443C71.9161 23.5024 72.4191 23.4117 72.8645 23.1837C73.3098 22.9557 73.6775 22.6007 73.9209 22.1635C74.1643 21.7264 74.2726 21.2269 74.2319 20.7282C74.1911 20.2295 74.0033 19.7541 73.6922 19.3623C73.3811 18.9704 72.9608 18.6797 72.4843 18.5269C72.0079 18.3742 71.4968 18.3663 71.0158 18.5042C70.5349 18.6421 70.1057 18.9197 69.7826 19.3018C69.3509 19.8123 69.1391 20.4731 69.1935 21.1395C69.2479 21.8059 69.5641 22.4235 70.0729 22.8573Z" fill="white"/>
<path d="M59.684 35.1198C59.9363 35.3417 60.2303 35.5111 60.5488 35.618C60.8673 35.725 61.2038 35.7673 61.5389 35.7427C61.874 35.718 62.2008 35.6268 62.5001 35.4743C62.7995 35.3219 63.0655 35.1113 63.2826 34.8549C63.4996 34.5984 63.6634 34.3013 63.7642 33.9808C63.8651 33.6604 63.9011 33.323 63.8701 32.9885C63.839 32.6539 63.7416 32.3289 63.5835 32.0325C63.4254 31.7361 63.2098 31.4741 62.9493 31.262C62.4359 30.8439 61.779 30.644 61.1198 30.7051C60.4606 30.7663 59.8517 31.0836 59.424 31.589C58.9963 32.0943 58.7839 32.7473 58.8326 33.4075C58.8812 34.0678 59.1869 34.6826 59.684 35.1198Z" fill="white"/>
<path d="M49.296 47.371C49.6805 47.6842 50.1486 47.8774 50.642 47.9265C51.1355 47.9756 51.6325 47.8785 52.0711 47.6472C52.5098 47.416 52.8707 47.0608 53.109 46.6259C53.3473 46.191 53.4524 45.6956 53.4112 45.2015C53.37 44.7073 53.1844 44.2361 52.8774 43.8467C52.5704 43.4573 52.1557 43.1667 51.6848 43.0112C51.2139 42.8558 50.7077 42.8422 50.2292 42.9723C49.7507 43.1024 49.321 43.3704 48.9936 43.7429C48.7677 43.9975 48.5958 44.2953 48.4882 44.6182C48.3807 44.9411 48.3399 45.2825 48.3681 45.6217C48.3964 45.9609 48.4932 46.2908 48.6527 46.5915C48.8122 46.8922 49.031 47.1574 49.296 47.371Z" fill="white"/>
<path d="M38.8945 59.6339C39.2779 59.9485 39.7453 60.1433 40.2387 60.1942C40.732 60.245 41.2294 60.1496 41.6689 59.9198C42.1084 59.6901 42.4706 59.3361 42.7103 58.9019C42.9501 58.4678 43.0569 57.9727 43.0173 57.4784C42.9778 56.984 42.7937 56.5122 42.4879 56.1217C42.1822 55.7312 41.7683 55.4393 41.2979 55.2823C40.8274 55.1253 40.3212 55.1102 39.8422 55.2389C39.3632 55.3675 38.9327 55.6342 38.6042 56.0058C38.3792 56.2603 38.2077 56.5576 38.1002 56.8799C37.9926 57.2021 37.9512 57.5428 37.9783 57.8815C38.0054 58.2202 38.1005 58.5499 38.2579 58.851C38.4153 59.1521 38.6318 59.4183 38.8945 59.6339Z" fill="white"/>
<path d="M28.446 71.8966C28.8272 72.2195 29.2956 72.4222 29.792 72.4791C30.2883 72.536 30.7904 72.4446 31.2348 72.2163C31.6792 71.988 32.046 71.6331 32.2888 71.1965C32.5316 70.7598 32.6396 70.261 32.5991 69.7631C32.5586 69.2651 32.3714 68.7903 32.0612 68.3986C31.751 68.007 31.3317 67.7161 30.8562 67.5626C30.3807 67.4092 29.8705 67.4 29.3899 67.5364C28.9092 67.6728 28.4798 67.9486 28.1558 68.3289C27.9402 68.582 27.7766 68.8752 27.6745 69.1916C27.5723 69.5081 27.5336 69.8415 27.5606 70.173C27.5876 70.5044 27.6797 70.8272 27.8316 71.123C27.9835 71.4187 28.1923 71.6816 28.446 71.8966Z" fill="white"/>
<path d="M255.806 180.377C256.319 180.795 256.976 180.995 257.636 180.934C258.295 180.873 258.904 180.556 259.331 180.05C259.759 179.545 259.971 178.892 259.923 178.232C259.874 177.571 259.568 176.957 259.071 176.519C258.819 176.297 258.525 176.128 258.207 176.021C257.888 175.914 257.552 175.872 257.216 175.896C256.881 175.921 256.555 176.012 256.255 176.165C255.956 176.317 255.69 176.528 255.473 176.784C255.256 177.041 255.092 177.338 254.991 177.658C254.89 177.979 254.854 178.316 254.885 178.651C254.916 178.985 255.014 179.31 255.172 179.607C255.33 179.903 255.546 180.165 255.806 180.377Z" fill="#A6A6A6"/>
<path d="M245.357 192.64C245.741 192.954 246.208 193.149 246.702 193.2C247.195 193.251 247.692 193.155 248.132 192.926C248.571 192.696 248.933 192.342 249.173 191.908C249.413 191.474 249.52 190.979 249.48 190.484C249.441 189.99 249.257 189.518 248.951 189.128C248.645 188.737 248.231 188.445 247.761 188.288C247.29 188.131 246.784 188.116 246.305 188.245C245.826 188.373 245.396 188.64 245.067 189.012C244.842 189.266 244.671 189.563 244.563 189.886C244.456 190.208 244.414 190.549 244.441 190.887C244.468 191.226 244.563 191.556 244.721 191.857C244.878 192.158 245.095 192.424 245.357 192.64Z" fill="#A6A6A6"/>
<path d="M234.969 204.927C235.351 205.25 235.819 205.452 236.315 205.509C236.812 205.566 237.314 205.475 237.758 205.247C238.203 205.018 238.569 204.663 238.812 204.227C239.055 203.79 239.163 203.291 239.123 202.793C239.082 202.295 238.895 201.821 238.585 201.429C238.274 201.037 237.855 200.746 237.38 200.593C236.904 200.439 236.394 200.43 235.913 200.567C235.433 200.703 235.003 200.979 234.679 201.359C234.464 201.612 234.3 201.905 234.198 202.222C234.096 202.538 234.057 202.872 234.084 203.203C234.111 203.535 234.203 203.857 234.355 204.153C234.507 204.449 234.716 204.712 234.969 204.927Z" fill="#A6A6A6"/>
<path d="M224.58 217.154C224.963 217.469 225.431 217.664 225.924 217.715C226.418 217.766 226.915 217.67 227.354 217.44C227.794 217.211 228.156 216.857 228.396 216.422C228.636 215.988 228.742 215.493 228.703 214.999C228.663 214.505 228.479 214.033 228.173 213.642C227.868 213.252 227.454 212.96 226.983 212.803C226.513 212.646 226.007 212.631 225.528 212.759C225.049 212.888 224.618 213.155 224.29 213.526C224.065 213.781 223.893 214.078 223.786 214.4C223.678 214.723 223.637 215.063 223.664 215.402C223.691 215.741 223.786 216.07 223.943 216.371C224.101 216.673 224.317 216.939 224.58 217.154Z" fill="#A6A6A6"/>
<path d="M214.192 229.404C214.577 229.717 215.045 229.911 215.539 229.96C216.032 230.009 216.529 229.912 216.968 229.68C217.406 229.449 217.767 229.094 218.005 228.659C218.244 228.224 218.349 227.729 218.308 227.235C218.266 226.74 218.081 226.269 217.774 225.88C217.467 225.49 217.052 225.2 216.581 225.044C216.11 224.889 215.604 224.875 215.126 225.006C214.647 225.136 214.217 225.404 213.89 225.776C213.664 226.031 213.492 226.328 213.385 226.651C213.277 226.974 213.236 227.316 213.265 227.655C213.293 227.994 213.39 228.324 213.549 228.625C213.709 228.925 213.928 229.191 214.192 229.404Z" fill="#A6A6A6"/>
<path opacity="0.2" d="M4.25882 1.83812C37.9034 4.25686 96.1707 24.6226 157.474 72.707C202.776 108.226 235.828 170.388 251.236 203.585L269.775 181.719C269.775 181.719 244.379 113.765 184.201 68.1235C154.124 45.3511 118.895 28.3112 87.2456 17.0399C48.1709 3.0233 14.8287 -2.05604 4.25882 1.83812Z" fill="white"/>
<path d="M242.89 248.367L282.4 201.758L267.029 184.96L223.807 235.947L242.89 248.367Z" fill="#3D405B"/>
<path opacity="0.1" d="M223.808 235.947L233.108 241.994L272.908 191.382L267.031 184.973L223.808 235.947Z" fill="black"/>
<path opacity="0.6" d="M251.574 237.967C269.896 250.314 286.065 266.072 297.869 284.902C309.979 303.827 316.822 325.64 317.69 348.092C317.98 359.472 316.591 370.834 313.566 381.809C310.454 392.988 305.745 403.66 299.586 413.494C293.279 423.505 285.715 432.665 277.08 440.753C268.29 448.976 258.678 456.27 248.393 462.522C259.486 457.453 270.023 451.248 279.837 444.007C289.768 436.646 298.711 428.037 306.443 418.392C322.472 398.433 332.242 374.181 334.525 348.684C336.798 322.913 331.356 296.464 320.085 272.869C308.813 249.274 291.967 228.316 272.061 211.191L251.574 237.967Z" fill="#3D405B"/>
<path d="M282.908 266.06L290.116 267.391L291.725 274.985L293.333 267.391L300.541 266.048L293.357 264.295L291.725 257.123L290.08 264.295L282.908 266.06Z" fill="white"/>
<path d="M309.431 408.319L313.458 409.068L314.353 413.313L315.26 409.068L319.287 408.319L315.272 407.339L314.353 403.336L313.434 407.339L309.431 408.319Z" fill="white"/>
<path d="M311.595 371.469L315.622 372.207L316.517 376.464L317.412 372.207L321.451 371.469L317.436 370.49L316.517 366.475L315.598 370.49L311.595 371.469Z" fill="white"/>
<path d="M288.23 242.369L292.257 243.119L293.164 247.364L294.059 243.119L298.086 242.369L294.071 241.39L293.164 237.387L292.245 241.39L288.23 242.369Z" fill="white"/>
<path d="M299.901 417.51C300.157 417.579 300.383 417.731 300.544 417.942C300.706 418.153 300.793 418.411 300.793 418.677C300.793 418.942 300.706 419.2 300.544 419.411C300.383 419.622 300.157 419.774 299.901 419.844C299.645 419.774 299.418 419.622 299.257 419.411C299.096 419.2 299.009 418.942 299.009 418.677C299.009 418.411 299.096 418.153 299.257 417.942C299.418 417.731 299.645 417.579 299.901 417.51Z" fill="white"/>
<path d="M266.571 236.686C266.827 236.755 267.053 236.907 267.214 237.118C267.376 237.329 267.463 237.587 267.463 237.853C267.463 238.118 267.376 238.376 267.214 238.587C267.053 238.798 266.827 238.95 266.571 239.02C266.314 238.95 266.088 238.798 265.927 238.587C265.766 238.376 265.678 238.118 265.678 237.853C265.678 237.587 265.766 237.329 265.927 237.118C266.088 236.907 266.314 236.755 266.571 236.686Z" fill="white"/>
<path d="M329.434 340.823C329.69 340.893 329.916 341.045 330.078 341.256C330.239 341.467 330.326 341.725 330.326 341.99C330.326 342.256 330.239 342.514 330.078 342.725C329.916 342.936 329.69 343.088 329.434 343.157C329.178 343.088 328.952 342.936 328.79 342.725C328.629 342.514 328.542 342.256 328.542 341.99C328.542 341.725 328.629 341.467 328.79 341.256C328.952 341.045 329.178 340.893 329.434 340.823Z" fill="white"/>
<path d="M301.981 411.427C302.183 411.451 302.37 411.549 302.505 411.702C302.64 411.854 302.715 412.051 302.715 412.255C302.715 412.459 302.64 412.656 302.505 412.809C302.37 412.961 302.183 413.059 301.981 413.084C301.778 413.059 301.592 412.961 301.456 412.809C301.321 412.656 301.246 412.459 301.246 412.255C301.246 412.051 301.321 411.854 301.456 411.702C301.592 411.549 301.778 411.451 301.981 411.427Z" fill="white"/>
<path d="M329.855 300.02C330.073 300.02 330.283 300.106 330.437 300.26C330.591 300.415 330.678 300.624 330.678 300.842C330.678 301.06 330.591 301.269 330.437 301.423C330.283 301.578 330.073 301.664 329.855 301.664C329.637 301.664 329.428 301.578 329.274 301.423C329.12 301.269 329.033 301.06 329.033 300.842C329.033 300.624 329.12 300.415 329.274 300.26C329.428 300.106 329.637 300.02 329.855 300.02Z" fill="white"/>
<path d="M321.451 384.506C322.017 384.547 322.547 384.802 322.934 385.218C323.32 385.634 323.535 386.181 323.535 386.749C323.535 387.317 323.32 387.864 322.934 388.28C322.547 388.697 322.017 388.951 321.451 388.993C320.884 388.951 320.354 388.697 319.968 388.28C319.581 387.864 319.366 387.317 319.366 386.749C319.366 386.181 319.581 385.634 319.968 385.218C320.354 384.802 320.884 384.547 321.451 384.506Z" fill="white"/>
<path d="M319.286 292.425C319.879 292.425 320.449 292.661 320.868 293.08C321.288 293.5 321.523 294.069 321.523 294.662C321.523 295.256 321.288 295.825 320.868 296.244C320.449 296.664 319.879 296.899 319.286 296.899C318.693 296.899 318.124 296.664 317.704 296.244C317.285 295.825 317.049 295.256 317.049 294.662C317.049 294.069 317.285 293.5 317.704 293.08C318.124 292.661 318.693 292.425 319.286 292.425Z" fill="white"/>
</svg>
