<svg width="1172" height="700" viewBox="0 0 1172 700" fill="none" xmlns="http://www.w3.org/2000/svg">
<path d="M479.976 -505.623L489.647 -486.366C499.212 -467.215 518.554 -428.701 536.192 -388.696C553.831 -348.69 569.977 -306.981 590.6 -270.382C611.328 -233.678 636.638 -201.977 666.953 -174.858C697.161 -147.845 732.479 -125.308 772.485 -107.669C812.49 -90.0308 857.394 -77.0795 886.216 -48.2575C915.038 -19.4354 927.99 25.4686 966.398 44.7048C1004.81 63.941 1068.88 57.7205 1110.48 73.7615C1152.09 89.8024 1171.43 128.316 1200.04 156.927C1228.76 185.643 1266.85 204.563 1281.19 247.658C1295.42 290.648 1286 357.919 1310.03 391.534C1334.06 425.149 1391.75 425.319 1420.48 425.298L1449.32 425.383L1546.78 327.927L1532.32 313.463C1517.96 299.105 1489.03 270.177 1460.21 241.355C1431.39 212.533 1402.46 183.606 1373.85 154.995C1345.13 126.278 1316.63 97.773 1287.91 69.0565C1259.3 40.4456 1230.37 11.518 1201.55 -17.304C1172.73 -46.1261 1143.8 -75.0537 1114.98 -103.876C1086.16 -132.698 1057.23 -161.625 1028.41 -190.447C999.584 -219.27 970.657 -248.197 941.835 -277.019C913.013 -305.841 884.085 -334.769 855.474 -363.38C826.758 -392.096 798.252 -420.602 769.536 -449.318C740.925 -477.929 711.997 -506.857 683.175 -535.679C654.353 -564.501 625.426 -593.428 611.067 -607.786L596.604 -622.25L479.976 -505.623Z" fill="#1D1E2B"/>
<path d="M403.292 -428.936L409.768 -406.484C416.138 -384.137 429.089 -339.233 440.337 -292.837C451.585 -246.441 461.341 -198.342 480.366 -160.145C499.497 -121.843 528.002 -93.3373 564.707 -72.6091C601.306 -51.9864 646.21 -39.0351 683.02 -18.2013C719.831 2.63256 748.758 31.5602 775.983 61.9799C803.207 92.3996 828.939 124.522 862.554 148.552C896.169 172.581 937.878 188.727 973.091 211.159C1008.3 233.59 1037.23 262.518 1065.84 291.129C1094.56 319.845 1123.06 348.351 1146.99 381.86C1170.81 415.264 1190.15 453.777 1214.18 487.392C1238.21 521.007 1267.13 549.935 1281.49 564.293L1295.95 578.757L1452.52 422.188L1423.68 422.103C1394.94 422.124 1337.26 421.953 1313.23 388.338C1289.2 354.723 1298.62 287.453 1284.38 244.463C1270.05 201.368 1231.96 182.448 1203.24 153.732C1174.63 125.121 1155.29 86.6073 1113.68 70.5664C1072.08 54.5255 1008 60.7459 969.596 41.5097C931.188 22.2735 918.237 -22.6305 889.415 -51.4526C860.593 -80.2746 815.689 -93.2258 775.683 -110.864C735.678 -128.503 700.36 -151.04 670.151 -178.053C639.837 -205.172 614.527 -236.873 593.799 -273.577C573.176 -310.176 557.03 -351.885 539.391 -391.891C521.752 -431.896 502.411 -470.41 492.845 -489.561L483.174 -508.818L403.292 -428.936Z" fill="#252636"/>
<path d="M269.085 -294.733L269.17 -265.891C269.15 -237.154 269.32 -179.469 274.178 -126.682C279.035 -73.8955 288.791 -25.7962 306.218 13.9982C323.751 53.8982 349.061 85.5988 396.95 95.1436C444.732 104.583 515.198 91.9718 566.387 98.4269C617.576 104.882 649.699 130.614 665.74 172.217C681.781 213.821 681.951 271.506 690.004 321.097C698.057 370.689 714.203 412.397 755.806 428.438C797.41 444.479 864.68 435.063 899.682 457.284C934.789 479.61 937.732 533.677 952.07 576.772C966.302 619.762 992.034 651.885 1032.04 669.524C1072.05 687.162 1126.54 690.527 1153.67 692.105L1180.92 693.787L1299.14 575.562L1284.68 561.098C1270.32 546.74 1241.4 517.812 1217.37 484.197C1193.34 450.582 1174 412.069 1150.18 378.665C1126.25 345.156 1097.75 316.65 1069.03 287.934C1040.42 259.323 1011.49 230.395 976.281 207.964C941.068 185.532 899.359 169.386 865.744 145.357C832.129 121.328 806.397 89.2048 779.173 58.7851C751.948 28.3654 723.021 -0.562237 686.21 -21.3961C649.4 -42.2299 604.496 -55.1812 567.897 -75.8039C531.192 -96.5322 502.687 -125.037 483.556 -163.34C464.531 -201.537 454.775 -249.636 443.527 -296.032C432.279 -342.428 419.328 -387.332 412.958 -409.678L406.482 -432.13L269.085 -294.733Z" fill="#2D2F42"/>
<path d="M-181.445 155.801L-154.2 157.484C-127.06 159.061 -72.5704 162.426 -11.7956 159.296C48.9793 156.165 116.25 146.749 159.24 160.981C202.335 175.319 221.255 213.41 222.811 269.286C224.262 325.057 208.456 398.719 235.68 429.138C262.905 459.558 333.371 446.947 382.962 455C432.554 463.053 461.481 491.98 477.522 533.583C493.563 575.186 496.929 629.676 546.52 637.729C596.111 645.782 692.14 607.609 743.118 613.852C794.201 620.202 800.339 671.074 816.275 712.572C832.105 753.964 857.837 786.087 888.257 813.311C918.676 840.536 953.995 863.073 971.548 874.236L989.207 885.504L1184.12 690.592L1156.87 688.909C1129.73 687.332 1075.25 683.967 1035.24 666.328C995.234 648.69 969.502 616.567 955.27 573.577C940.932 530.482 937.989 476.414 902.882 454.088C867.88 431.868 800.609 441.284 759.006 425.243C717.403 409.202 701.256 367.493 693.204 317.902C685.151 268.311 684.981 210.625 668.94 169.022C652.899 127.419 620.776 101.687 569.587 95.2317C518.398 88.7766 447.932 101.388 400.149 91.9484C352.261 82.4036 326.951 50.703 309.418 10.803C291.991 -28.9914 282.235 -77.0907 277.377 -129.877C272.52 -182.664 272.35 -240.349 272.37 -269.086L272.285 -297.929L-181.445 155.801Z" fill="#35374E"/>
<path d="M-363.574 337.932L-349.11 352.396C-334.752 366.754 -305.824 395.682 -277.002 424.504C-248.18 453.326 -219.252 482.253 -190.641 510.864C-161.925 539.581 -133.42 568.086 -104.703 596.802C-76.0922 625.413 -47.1646 654.341 -18.3426 683.163C10.4795 711.985 39.4071 740.913 68.2292 769.735C97.0512 798.557 125.979 827.484 154.801 856.306C183.623 885.128 212.551 914.056 241.373 942.878C270.195 971.7 299.122 1000.63 327.733 1029.24C356.45 1057.96 384.955 1086.46 413.671 1115.18C442.282 1143.79 471.21 1172.72 500.032 1201.54C528.854 1230.36 557.782 1259.29 572.14 1273.65L586.604 1288.11L992.404 882.309L974.745 871.04C957.192 859.877 921.873 837.34 891.454 810.116C861.034 782.891 835.302 750.768 819.472 709.376C803.537 667.879 797.398 617.007 746.315 610.657C695.337 604.413 599.308 642.586 549.717 634.534C500.126 626.481 496.76 571.991 480.719 530.388C464.678 488.785 435.751 459.857 386.159 451.804C336.568 443.752 266.102 456.363 238.877 425.943C211.653 395.523 227.459 321.862 226.008 266.091C224.452 210.215 205.532 172.123 162.437 157.786C119.447 143.554 52.1764 152.969 -8.59847 156.1C-69.3733 159.231 -123.863 155.865 -151.003 154.288L-178.247 152.606L-363.574 337.932Z" fill="#3D405B"/>
</svg>
