<svg width="1271" height="873" viewBox="0 0 1271 873" fill="none" xmlns="http://www.w3.org/2000/svg">
<g filter="url(#filter0_i_1294_6755)">
<path d="M261 136.849C231.823 79.6989 126 48.3488 94 44.3488C62 40.3489 70.5 31.3489 57.5 14.3489C44.5 -2.65114 0 1.5 0 1.5V873.349H1269.5C1269.5 873.349 1260.5 823.849 1225.09 816.849C1187.37 809.394 1159.87 760.657 1113 752.349C1061.37 743.196 1023.5 770.091 976 755.954C928.5 741.817 978.103 680.349 940.5 664.849C902.897 649.349 906.364 601.947 887 585.849C850.912 555.849 813 567.349 793 516.349C780.398 484.214 791.008 440.349 801 418.349C810.992 396.349 836.424 368.04 850.912 365.56L832.926 351.173L822.934 322.4C812.054 329.111 785.687 333.167 765.613 336.255L765 336.349C739 340.349 730.76 345.798 648.5 328.349C599 317.849 537.471 285.052 499.5 247.349C461.529 209.646 415.469 222.849 375.5 222.849C335.531 222.849 297.472 208.286 261 136.849Z" fill="#E6F8FE"/>
</g>
<path d="M261 136.849C231.823 79.6989 126 48.3488 94 44.3488C62 40.3489 70.5 31.3489 57.5 14.3489C44.5 -2.65114 0 1.5 0 1.5V873.349H1269.5C1269.5 873.349 1260.5 823.849 1225.09 816.849C1187.37 809.394 1159.87 760.657 1113 752.349C1061.37 743.196 1023.5 770.091 976 755.954C928.5 741.817 978.103 680.349 940.5 664.849C902.897 649.349 906.364 601.947 887 585.849C850.912 555.849 813 567.349 793 516.349C780.398 484.214 791.008 440.349 801 418.349C810.992 396.349 836.424 368.04 850.912 365.56L832.926 351.173L822.934 322.4C812.054 329.111 785.687 333.167 765.613 336.255L765 336.349C739 340.349 730.76 345.798 648.5 328.349C599 317.849 537.471 285.052 499.5 247.349C461.529 209.646 415.469 222.849 375.5 222.849C335.531 222.849 297.472 208.286 261 136.849Z" stroke="white"/>
<path d="M898.153 346.423L962.839 308.643L965.338 337.187C966.534 350.895 955.166 365.369 932.727 378.675L896.667 400.093L911.819 381.323C920.055 371.096 918.298 361.001 906.82 352.697L898.153 346.423Z" fill="#263238"/>
<path d="M855.773 285.901L913.399 238.037L887.431 225.926C874.96 220.114 857.47 225.846 837.292 242.381L804.832 268.94L827.679 261.159C840.097 256.905 848.982 262.009 852.86 275.634L855.773 285.901Z" fill="#263238"/>
<path d="M868.427 366.923L882.599 351.3L845.881 298.861L826.353 306.835C820.545 309.403 817.26 315.996 818.122 325.552C819.573 342.135 832.989 361.295 848.075 368.331C856.708 372.335 864.019 371.49 868.427 366.923Z" fill="#37474F"/>
<path d="M846.883 337.242C857.121 351.863 872.265 358.924 880.707 353.013C889.149 347.101 887.693 330.457 877.455 315.835C867.217 301.214 852.074 294.153 843.632 300.065C835.19 305.976 836.646 322.621 846.883 337.242Z" fill="#455A64"/>
<path d="M826.369 306.86C820.562 309.428 817.276 316.021 818.138 325.577C819.59 342.16 833.006 361.32 848.092 368.356C856.742 372.384 864.053 371.54 868.496 367.023L872.566 362.581C868.686 366.871 861.897 367.72 853.841 363.96C838.955 357.025 825.73 338.138 824.279 321.74C823.505 312.918 826.592 306.834 831.92 304.639L826.369 306.86Z" fill="#263238"/>
<path d="M838.632 301.827C833.369 303.958 830.325 309.865 831.076 318.443C832.437 333.998 845.001 351.941 859.152 358.539C866.926 362.163 873.481 361.349 877.305 357.191L882.617 351.325C878.804 355.605 872.242 356.461 864.467 352.837C851.273 346.679 839.526 329.903 838.252 315.399C837.506 306.853 840.555 300.98 845.881 298.861L838.632 301.827Z" fill="#263238"/>
<path opacity="0.1" d="M877.974 344.694L875.218 340.758C870.388 345.99 857.642 360.189 854.487 363.083C850.594 366.642 836.715 362.203 820.575 336.271C825.348 349.695 836.178 362.783 848.076 368.331C850.999 369.763 854.166 370.628 857.411 370.88L877.974 344.694Z" fill="white"/>
<path d="M846.883 337.242C857.121 351.863 872.265 358.924 880.707 353.013C889.149 347.101 887.693 330.457 877.455 315.835C867.217 301.214 852.074 294.153 843.632 300.065C835.19 305.976 836.646 322.621 846.883 337.242Z" fill="#455A64"/>
<path d="M1023.25 292.358C1088.57 246.623 1125.71 179.496 1124.42 149.814L1124.39 149.016L1124.39 148.873C1124.24 147.178 1123.65 145.551 1122.68 144.157C1121.7 142.764 1120.37 141.653 1118.83 140.938L1118.7 140.882L1117.96 140.588C1090.51 129.218 1014.73 141.161 949.409 186.896C886.539 230.918 843.16 287.552 839.168 292.845L838.867 293.26C836.085 297.058 834.778 302.618 835.419 309.479C837.061 328.131 852.103 349.613 869.094 357.572C875.581 360.599 881.41 361.181 886.044 359.712C892.342 357.764 960.397 336.371 1023.25 292.358Z" fill="#A7A9B3"/>
<path d="M1119.22 175.826C1122.94 165.631 1124.72 156.704 1124.42 149.814L1124.39 149.016L1124.39 148.873C1124.24 147.178 1123.65 145.551 1122.68 144.157C1121.7 142.764 1120.37 141.653 1118.83 140.938L1118.7 140.883L1117.96 140.588C1111.57 137.95 1102.58 136.549 1091.71 136.571C1084.75 136.613 1077.8 137.103 1070.91 138.039C1068.15 141.298 1066.8 146.262 1067.36 152.587C1068.74 168.372 1081.49 186.588 1095.85 193.279C1101.6 195.957 1106.73 196.394 1110.74 194.924C1113.97 188.748 1116.81 182.369 1119.22 175.826Z" fill="#455A64"/>
<path opacity="0.15" d="M949.394 186.871C886.524 230.893 843.145 287.527 839.153 292.82L838.852 293.235C836.07 297.033 834.763 302.593 835.404 309.454C835.728 312.75 836.399 316.002 837.405 319.157C862.295 288.923 907.746 242.145 960.098 205.488C1032.48 154.806 1096.25 136.706 1118.05 140.636C1090.49 129.193 1014.71 141.136 949.394 186.871Z" fill="black"/>
<path opacity="0.35" d="M1023.25 292.357C960.385 336.379 892.33 357.772 885.99 359.713L885.497 359.855C880.977 361.169 875.305 360.496 869.068 357.535C912.445 341.967 964.182 322.747 1016.53 286.089C1088.92 235.407 1120.69 171.612 1124.45 149.788C1125.71 179.496 1088.57 246.623 1023.25 292.357Z" fill="white"/>
<path d="M935.798 363.532L957.634 319.818L951.19 316.799L889.744 346.759L888.85 359.728C887.661 376.895 880.645 393.141 868.965 405.778L847.418 429.026C847.418 429.026 865.185 420.175 886.499 409.174C905.647 399.283 925.732 385.126 935.798 363.532Z" fill="#455A64"/>
<path d="M889.746 346.759L951.217 316.781L929.389 360.508C919.311 382.111 901.162 397.632 880.536 409.668L847.42 429.026L868.892 405.83C880.572 393.193 887.588 376.947 888.778 359.78L889.746 346.759Z" fill="#37474F"/>
<path d="M852.574 244.672L901.12 239.104L901.753 246.193L852.584 293.686L840.092 290.09C823.547 285.354 805.882 286.41 790.019 293.082L760.802 305.323C760.802 305.323 775.196 291.654 792.823 275.388C808.667 260.778 828.839 246.746 852.574 244.672Z" fill="#455A64"/>
<path d="M852.583 293.687L901.776 246.176L853.196 251.749C829.45 253.831 808.658 265.577 790.292 280.842L760.8 305.323L790.017 293.082C805.887 286.428 823.553 285.392 840.091 290.145L852.583 293.687Z" fill="#37474F"/>
<path d="M1035.36 239.604C1048.81 231.751 1053.35 214.476 1045.5 201.019C1037.65 187.563 1020.37 183.022 1006.92 190.875C993.459 198.729 988.917 216.004 996.771 229.46C1004.62 242.916 1021.9 247.458 1035.36 239.604Z" fill="#37474F"/>
<path d="M1002.76 228.096C1009.86 238.239 1023.84 240.704 1033.99 233.602C1044.13 226.5 1046.59 212.52 1039.49 202.377C1032.39 192.234 1018.41 189.769 1008.27 196.871C998.124 203.974 995.659 217.953 1002.76 228.096Z" fill="#048ABF"/>
<path opacity="0.8" d="M1002.94 228.565C1010.04 238.708 1024.02 241.173 1034.16 234.071C1044.31 226.969 1046.77 212.989 1039.67 202.846C1032.57 192.703 1018.59 190.238 1008.44 197.34C998.3 204.443 995.835 218.422 1002.94 228.565Z" fill="white"/>
<path d="M977.293 270.485C974.034 272.767 970.172 274.031 966.194 274.118C962.217 274.205 958.303 273.11 954.947 270.973C951.592 268.835 948.945 265.75 947.343 262.109C945.741 258.467 945.254 254.432 945.945 250.514C946.636 246.596 948.473 242.971 951.224 240.097C953.976 237.223 957.517 235.229 961.401 234.368C965.286 233.507 969.338 233.817 973.046 235.259C976.754 236.701 979.951 239.21 982.233 242.469C985.293 246.839 986.492 252.246 985.566 257.5C984.639 262.754 981.664 267.425 977.293 270.485V270.485Z" fill="#37474F"/>
<path d="M971.175 267.581C978.68 264.591 982.341 256.083 979.351 248.578C976.361 241.072 967.853 237.412 960.348 240.401C952.842 243.391 949.182 251.899 952.171 259.405C955.161 266.91 963.669 270.571 971.175 267.581Z" fill="#048ABF"/>
<path opacity="0.7" d="M971.175 267.581C978.68 264.591 982.341 256.083 979.351 248.578C976.361 241.072 967.853 237.412 960.348 240.401C952.842 243.391 949.182 251.899 952.171 259.405C955.161 266.91 963.669 270.571 971.175 267.581Z" fill="white"/>
<path d="M995.518 125.91C995.311 126.023 995.068 126.052 994.84 125.991C994.612 125.931 994.415 125.785 994.291 125.585L993.778 124.852C993.174 123.891 992.243 123.181 991.156 122.854C990.069 122.526 988.901 122.603 987.866 123.07L987.042 123.425C986.828 123.525 986.584 123.54 986.36 123.466C986.135 123.393 985.947 123.236 985.835 123.028C985.723 122.82 985.694 122.577 985.755 122.349C985.816 122.121 985.963 121.925 986.164 121.801L986.909 121.279C987.87 120.675 988.579 119.744 988.907 118.657C989.235 117.57 989.158 116.402 988.691 115.367L988.336 114.543C988.237 114.33 988.224 114.088 988.3 113.866C988.375 113.644 988.534 113.46 988.742 113.352V113.352C988.946 113.237 989.187 113.205 989.414 113.264C989.641 113.322 989.837 113.466 989.96 113.665L990.482 114.41C991.086 115.371 992.017 116.08 993.104 116.408C994.19 116.736 995.359 116.659 996.393 116.192L997.209 115.824C997.425 115.731 997.668 115.723 997.891 115.8C998.113 115.878 998.298 116.036 998.409 116.243C998.524 116.447 998.555 116.688 998.497 116.915C998.439 117.142 998.295 117.337 998.096 117.461L997.351 117.983C996.394 118.587 995.687 119.516 995.358 120.599C995.029 121.682 995.101 122.847 995.56 123.882L995.924 124.719C996.019 124.932 996.03 125.173 995.955 125.394C995.88 125.615 995.724 125.799 995.518 125.91V125.91ZM990.059 120.757C991.212 120.787 992.336 121.125 993.316 121.734C993.346 120.576 993.688 119.449 994.305 118.469C993.143 118.447 992.01 118.108 991.028 117.488C991.001 118.653 990.658 119.79 990.034 120.774L990.059 120.757Z" fill="white"/>
<path d="M1023.72 78.7154C1022.68 79.2762 1021.5 79.5159 1020.32 79.4042C1019.15 79.2924 1018.03 78.8342 1017.11 78.0876C1016.2 77.3409 1015.53 76.3394 1015.18 75.2096C1014.83 74.0799 1014.83 72.8728 1015.17 71.741C1015.51 70.6093 1016.18 69.6037 1017.09 68.8516C1018 68.0995 1019.11 67.6347 1020.29 67.5159C1021.46 67.3972 1022.65 67.6298 1023.69 68.1845C1024.74 68.7391 1025.59 69.5908 1026.15 70.6317C1026.9 72.0257 1027.06 73.66 1026.61 75.1756C1026.15 76.6912 1025.12 77.9643 1023.72 78.7154V78.7154ZM1018.96 69.8541C1018.25 70.2451 1017.67 70.838 1017.3 71.5581C1016.92 72.2781 1016.77 73.093 1016.86 73.8998C1016.95 74.7067 1017.27 75.4693 1017.79 76.0916C1018.31 76.7138 1019.01 77.1678 1019.79 77.3962C1020.56 77.6245 1021.39 77.617 1022.17 77.3747C1022.94 77.1323 1023.63 76.6659 1024.14 76.0343C1024.65 75.4027 1024.96 74.6343 1025.03 73.826C1025.11 73.0177 1024.94 72.2057 1024.55 71.4926C1024.03 70.5352 1023.14 69.8251 1022.1 69.5179C1021.05 69.2107 1019.92 69.3316 1018.96 69.8541Z" fill="white"/>
<path d="M1067.03 103.265C1066.81 103.38 1066.55 103.405 1066.32 103.335C1066.08 103.265 1065.88 103.105 1065.76 102.89L1064.32 100.198C1064.27 100.09 1064.23 99.9714 1064.22 99.8496C1064.21 99.7279 1064.22 99.605 1064.26 99.488C1064.33 99.2517 1064.49 99.0538 1064.71 98.9378C1064.93 98.8219 1065.18 98.7973 1065.42 98.8696C1065.66 98.9419 1065.85 99.1051 1065.97 99.3232L1067.41 102.015C1067.52 102.232 1067.55 102.485 1067.48 102.719C1067.4 102.954 1067.24 103.15 1067.03 103.265V103.265Z" fill="white"/>
<path d="M1066.27 105.776L1063.58 107.217C1063.36 107.334 1063.1 107.361 1062.87 107.29C1062.63 107.22 1062.43 107.059 1062.31 106.842C1062.2 106.625 1062.17 106.37 1062.24 106.133C1062.31 105.897 1062.47 105.698 1062.69 105.58L1065.38 104.139C1065.49 104.081 1065.61 104.044 1065.73 104.032C1065.85 104.019 1065.97 104.03 1066.09 104.065C1066.21 104.1 1066.32 104.157 1066.41 104.234C1066.51 104.311 1066.58 104.406 1066.64 104.514C1066.7 104.621 1066.74 104.739 1066.75 104.861C1066.76 104.982 1066.75 105.105 1066.72 105.222C1066.68 105.34 1066.62 105.449 1066.55 105.544C1066.47 105.639 1066.37 105.717 1066.27 105.776V105.776Z" fill="white"/>
<path d="M1070.33 109.442C1070.23 109.501 1070.11 109.539 1069.99 109.552C1069.87 109.565 1069.74 109.554 1069.63 109.519C1069.51 109.484 1069.4 109.426 1069.3 109.349C1069.21 109.271 1069.13 109.176 1069.07 109.068L1067.64 106.367C1067.59 106.259 1067.55 106.141 1067.53 106.02C1067.52 105.898 1067.53 105.775 1067.57 105.657C1067.6 105.54 1067.66 105.431 1067.74 105.336C1067.82 105.241 1067.91 105.162 1068.02 105.105C1068.24 104.988 1068.5 104.963 1068.73 105.036C1068.97 105.108 1069.17 105.272 1069.29 105.492L1070.72 108.193C1070.83 108.41 1070.86 108.663 1070.78 108.897C1070.71 109.131 1070.55 109.327 1070.33 109.442Z" fill="white"/>
<path d="M1072.44 102.468L1069.75 103.909C1069.64 103.966 1069.52 104.002 1069.4 104.013C1069.28 104.025 1069.16 104.013 1069.04 103.977C1068.92 103.941 1068.82 103.883 1068.72 103.805C1068.63 103.727 1068.55 103.631 1068.49 103.523C1068.43 103.415 1068.4 103.297 1068.39 103.175C1068.37 103.053 1068.39 102.931 1068.42 102.814C1068.46 102.697 1068.52 102.588 1068.59 102.493C1068.67 102.399 1068.77 102.321 1068.88 102.263L1071.57 100.822C1071.68 100.764 1071.79 100.728 1071.92 100.715C1072.04 100.702 1072.16 100.714 1072.28 100.749C1072.39 100.783 1072.5 100.841 1072.6 100.918C1072.69 100.995 1072.77 101.09 1072.83 101.197C1072.89 101.305 1072.92 101.423 1072.94 101.544C1072.95 101.666 1072.94 101.789 1072.9 101.906C1072.87 102.023 1072.81 102.132 1072.73 102.227C1072.66 102.322 1072.56 102.401 1072.46 102.459L1072.44 102.468Z" fill="white"/>
<path d="M1101.48 275.892C1101.53 276.124 1101.49 276.366 1101.37 276.57C1101.24 276.773 1101.05 276.921 1100.82 276.983L1099.96 277.234C1098.86 277.538 1097.91 278.227 1097.29 279.176C1096.66 280.124 1096.4 281.267 1096.55 282.392L1096.67 283.294C1096.7 283.524 1096.64 283.756 1096.5 283.946C1096.37 284.135 1096.17 284.268 1095.94 284.32C1095.71 284.371 1095.47 284.331 1095.26 284.208C1095.06 284.085 1094.91 283.888 1094.85 283.659L1094.6 282.799C1094.29 281.706 1093.6 280.76 1092.66 280.135C1091.71 279.51 1090.57 279.248 1089.44 279.397L1088.54 279.51C1088.31 279.533 1088.08 279.473 1087.89 279.34C1087.7 279.206 1087.57 279.009 1087.51 278.785C1087.47 278.553 1087.51 278.312 1087.63 278.11C1087.75 277.907 1087.95 277.758 1088.18 277.693L1089.04 277.442C1090.13 277.139 1091.08 276.449 1091.7 275.501C1092.33 274.553 1092.59 273.41 1092.44 272.284L1092.32 271.382C1092.3 271.263 1092.3 271.14 1092.32 271.021C1092.35 270.902 1092.39 270.788 1092.46 270.687C1092.53 270.585 1092.62 270.498 1092.72 270.43C1092.82 270.363 1092.93 270.315 1093.05 270.291C1093.17 270.267 1093.29 270.267 1093.41 270.291C1093.53 270.314 1093.65 270.361 1093.75 270.428C1093.85 270.496 1093.93 270.582 1094 270.683C1094.07 270.784 1094.12 270.898 1094.14 271.017L1094.39 271.878C1094.7 272.972 1095.39 273.92 1096.33 274.546C1097.28 275.171 1098.42 275.432 1099.55 275.28L1100.45 275.167C1100.68 275.132 1100.92 275.188 1101.11 275.324C1101.3 275.459 1101.43 275.662 1101.48 275.892ZM1094.94 279.767C1095.3 278.669 1095.95 277.686 1096.81 276.919C1095.71 276.558 1094.73 275.912 1093.96 275.046C1093.6 276.144 1092.96 277.127 1092.09 277.894C1093.21 278.232 1094.21 278.864 1095 279.724L1094.94 279.767Z" fill="white"/>
<path d="M1136.47 225.573C1136.78 226.787 1136.69 228.069 1136.22 229.229C1135.78 230.319 1135.02 231.254 1134.04 231.915C1133.07 232.576 1131.92 232.934 1130.74 232.943C1129.56 232.953 1128.41 232.614 1127.42 231.97C1126.44 231.325 1125.66 230.404 1125.2 229.321C1124.74 228.238 1124.6 227.042 1124.82 225.884C1125.03 224.726 1125.58 223.657 1126.4 222.812C1127.23 221.966 1128.28 221.382 1129.43 221.133C1130.58 220.884 1131.78 220.981 1132.88 221.412C1133.77 221.761 1134.56 222.322 1135.19 223.047C1135.82 223.772 1136.26 224.639 1136.47 225.573ZM1126.7 227.954C1126.76 228.172 1126.84 228.385 1126.93 228.592C1127.25 229.336 1127.78 229.968 1128.46 230.41C1129.14 230.852 1129.93 231.084 1130.74 231.077C1131.55 231.07 1132.34 230.824 1133.01 230.369C1133.68 229.915 1134.2 229.273 1134.51 228.524C1134.71 228.019 1134.8 227.481 1134.79 226.938C1134.79 226.396 1134.67 225.86 1134.46 225.363C1134.24 224.865 1133.93 224.414 1133.54 224.037C1133.15 223.659 1132.69 223.362 1132.19 223.162C1131.68 222.963 1131.14 222.864 1130.6 222.873C1130.06 222.881 1129.52 222.997 1129.02 223.212C1128.53 223.427 1128.08 223.739 1127.7 224.128C1127.32 224.518 1127.02 224.978 1126.82 225.482C1126.54 226.276 1126.5 227.136 1126.7 227.954Z" fill="white"/>
<path d="M1150.2 275.068L1150.89 278.097C1150.94 278.34 1150.9 278.592 1150.76 278.801C1150.63 279.011 1150.42 279.162 1150.18 279.223C1149.95 279.256 1149.71 279.199 1149.52 279.064C1149.32 278.929 1149.19 278.726 1149.14 278.495L1148.45 275.478C1148.39 275.239 1148.43 274.986 1148.56 274.776C1148.69 274.566 1148.9 274.416 1149.14 274.359C1149.38 274.301 1149.63 274.341 1149.84 274.47C1150.05 274.599 1150.2 274.806 1150.26 275.046L1150.2 275.068Z" fill="white"/>
<path d="M1154.63 272.149C1154.66 272.269 1154.67 272.392 1154.65 272.513C1154.63 272.634 1154.58 272.75 1154.52 272.854C1154.45 272.958 1154.37 273.048 1154.27 273.119C1154.17 273.19 1154.06 273.24 1153.94 273.267L1150.91 273.963C1150.66 274.011 1150.41 273.964 1150.2 273.832C1149.99 273.7 1149.84 273.493 1149.78 273.253C1149.75 273.134 1149.75 273.011 1149.77 272.891C1149.79 272.771 1149.84 272.656 1149.9 272.553C1149.97 272.45 1150.06 272.362 1150.16 272.292C1150.26 272.222 1150.37 272.173 1150.49 272.147L1153.52 271.452C1153.76 271.398 1154.01 271.441 1154.22 271.572C1154.43 271.702 1154.58 271.91 1154.63 272.149V272.149Z" fill="white"/>
<path d="M1148.65 268.231L1149.34 271.269C1149.39 271.509 1149.34 271.759 1149.21 271.967C1149.08 272.175 1148.88 272.326 1148.64 272.387C1148.4 272.431 1148.15 272.382 1147.94 272.251C1147.73 272.119 1147.58 271.914 1147.51 271.676L1146.84 268.651C1146.78 268.412 1146.82 268.159 1146.95 267.949C1147.08 267.739 1147.28 267.589 1147.52 267.532C1147.76 267.474 1148.02 267.515 1148.23 267.643C1148.44 267.772 1148.59 267.979 1148.64 268.219L1148.65 268.231Z" fill="white"/>
<path d="M1147.81 273.71C1147.86 273.953 1147.81 274.206 1147.68 274.415C1147.54 274.624 1147.33 274.771 1147.09 274.824L1144.07 275.511C1143.95 275.541 1143.83 275.548 1143.71 275.529C1143.58 275.51 1143.47 275.467 1143.36 275.401C1143.26 275.336 1143.17 275.25 1143.1 275.149C1143.03 275.048 1142.98 274.934 1142.95 274.813C1142.92 274.694 1142.92 274.57 1142.94 274.449C1142.96 274.328 1143 274.212 1143.07 274.108C1143.13 274.004 1143.22 273.914 1143.32 273.843C1143.42 273.772 1143.53 273.722 1143.65 273.695L1146.69 273.012C1146.81 272.983 1146.93 272.979 1147.05 272.998C1147.17 273.018 1147.29 273.062 1147.39 273.127C1147.5 273.192 1147.59 273.277 1147.66 273.377C1147.73 273.477 1147.78 273.59 1147.81 273.71V273.71Z" fill="white"/>
<defs>
<filter id="filter0_i_1294_6755" x="-5.5" y="0.553062" width="1275.6" height="878.296" filterUnits="userSpaceOnUse" color-interpolation-filters="sRGB">
<feFlood flood-opacity="0" result="BackgroundImageFix"/>
<feBlend mode="normal" in="SourceGraphic" in2="BackgroundImageFix" result="shape"/>
<feColorMatrix in="SourceAlpha" type="matrix" values="0 0 0 0 0 0 0 0 0 0 0 0 0 0 0 0 0 0 127 0" result="hardAlpha"/>
<feOffset dx="-5" dy="5"/>
<feGaussianBlur stdDeviation="2.5"/>
<feComposite in2="hardAlpha" operator="arithmetic" k2="-1" k3="1"/>
<feColorMatrix type="matrix" values="0 0 0 0 0 0 0 0 0 0 0 0 0 0 0 0 0 0 0.25 0"/>
<feBlend mode="normal" in2="shape" result="effect1_innerShadow_1294_6755"/>
</filter>
</defs>
</svg>
